<?xml version="1.0" encoding="utf-8"?>
<!-- Generator: Adobe Illustrator 25.3.1, SVG Export Plug-In . SVG Version: 6.00 Build 0)  -->
<svg version="1.1" id="Layer_1" xmlns="http://www.w3.org/2000/svg" xmlns:xlink="http://www.w3.org/1999/xlink" x="0px" y="0px"
	 viewBox="0 0 931.23 860.14" style="enable-background:new 0 0 931.23 860.14;" xml:space="preserve">
<style type="text/css">
	.st0{display:none;}
	.st1{fill:#0C7D8C;}
	.st2{font-family:'Montserrat-ExtraBold';}
	.st3{font-size:94.1108px;}
	.st4{display:inline;}
	.st5{display:inline;fill:#212121;}
	.st6{font-family:'Montserrat-Bold';}
	.st7{font-size:157.1782px;}
	.st8{fill:#212121;}
	.st9{font-family:'Montserrat-Light';}
	.st10{font-size:30.6738px;}
	.st11{fill:#0091EA;}
	.st12{fill:#00C853;}
	.st13{fill:#D50000;}
	.st14{fill:#FFAB00;}
	.st15{fill:url(#SVGID_1_);}
	.st16{fill:url(#SVGID_2_);}
	.st17{fill:url(#SVGID_3_);}
	.st18{fill:url(#SVGID_4_);}
	.st19{fill:url(#SVGID_5_);}
	.st20{fill:url(#SVGID_6_);}
	.st21{fill:url(#SVGID_7_);}
	.st22{fill:url(#SVGID_8_);}
	.st23{filter:url(#Adobe_OpacityMaskFilter);}
	.st24{filter:url(#Adobe_OpacityMaskFilter_1_);}
	.st25{mask:url(#SVGID_9_);fill:url(#SVGID_10_);}
	.st26{fill:url(#SVGID_11_);}
	.st27{fill:url(#SVGID_12_);}
	.st28{filter:url(#Adobe_OpacityMaskFilter_2_);}
	.st29{filter:url(#Adobe_OpacityMaskFilter_3_);}
	.st30{mask:url(#SVGID_13_);fill:url(#SVGID_14_);}
	.st31{fill:url(#SVGID_15_);}
	.st32{font-size:26.257px;}
	.st33{fill:url(#SVGID_16_);}
	.st34{fill:url(#SVGID_17_);}
	.st35{fill:url(#SVGID_18_);}
	.st36{fill:url(#SVGID_19_);}
	.st37{filter:url(#Adobe_OpacityMaskFilter_4_);}
	.st38{filter:url(#Adobe_OpacityMaskFilter_5_);}
	.st39{mask:url(#SVGID_20_);fill:url(#SVGID_21_);}
	.st40{fill:url(#SVGID_22_);}
	.st41{fill:url(#SVGID_23_);}
	.st42{filter:url(#Adobe_OpacityMaskFilter_6_);}
	.st43{filter:url(#Adobe_OpacityMaskFilter_7_);}
	.st44{mask:url(#SVGID_24_);fill:url(#SVGID_25_);}
	.st45{fill:url(#SVGID_26_);}
	.st46{fill:#050505;}
	.st47{fill:url(#SVGID_27_);}
	.st48{fill:url(#SVGID_28_);}
	.st49{fill:url(#SVGID_29_);}
	.st50{fill:url(#SVGID_30_);}
	.st51{fill:url(#SVGID_31_);}
	.st52{fill:url(#SVGID_32_);}
	.st53{fill:url(#SVGID_33_);}
	.st54{fill:url(#SVGID_34_);}
	.st55{fill:url(#SVGID_35_);}
	.st56{fill:none;}
	.st57{fill:url(#SVGID_37_);}
	.st58{fill:url(#SVGID_38_);}
	.st59{fill:url(#SVGID_39_);}
	.st60{fill:url(#SVGID_40_);}
	.st61{display:none;fill:url(#SVGID_41_);}
	.st62{fill:url(#SVGID_42_);}
	.st63{font-family:'MyriadPro-Regular';}
	.st64{font-size:47.6378px;}
</style>
<g class="st0">
	<text transform="matrix(1 0 0 1 421.0073 890.0264)" class="st1 st2 st3">PSF</text>
	<g class="st4">
		<text transform="matrix(1 0 0 1 233.0386 940.4258)" class="st9" style="fill:#1D1E1E; font-size:29.0142px;">Pakistan School Sports Federation</text>
		<g>
			<g>
				<rect x="227.84" y="949.41" class="st1" width="499.07" height="2.26"/>
			</g>
			<g>
				<rect x="227.84" y="911" class="st1" width="499.07" height="2.25"/>
			</g>
		</g>
	</g>
</g>
<g id="Logo_x5F_1" class="st0">
	<text transform="matrix(1 0 0 1 471.2826 614.7581)" class="st5 st6 st7">PSF</text>
	<text transform="matrix(1 0 0 1 484.4618 655.2024)" class="st4"><tspan x="0" y="0" class="st8 st9 st10">  Pakistan School</tspan><tspan x="0" y="36.81" class="st8 st9 st10">Sports Federation</tspan></text>
	<g class="st4">
		
			<ellipse transform="matrix(0.7071 -0.7071 0.7071 0.7071 -161.947 405.1333)" class="st11" cx="408.07" cy="398.05" rx="40.45" ry="40.45"/>
		<path class="st12" d="M198.95,308.69c1.75,2.83,3.34,5.68,5.08,8.44c1.88,2.69,3.53,5.46,5.56,8.01
			c3.82,5.21,7.82,10.22,12.25,14.85c8.73,9.33,18.22,17.79,28.28,25.57c20.15,15.62,42.03,28.69,64.39,42.54
			c22.28,13.9,44.94,28.85,65.25,48.25c10.15,9.66,19.51,20.58,27.59,32.66c8,12.18,14.21,25.6,18.8,39.21
			c4.41,13.71,7.27,27.71,8.82,41.69c1.44,13.98,1.74,27.98,0.98,41.69c-1.48,27.49-6.43,53.93-12.03,79.61
			c-11.28,51.2-23.62,102.13-39.42,152.53c1.49-52.78,6.45-105.02,12.42-157c2.94-25.89,5.94-51.3,6.03-76.15
			c0.06-12.42-0.45-24.64-2.12-36.63c-1.49-12-4.05-23.71-7.73-34.87c-3.64-11.2-8.46-21.71-14.63-31.54
			c-6.12-9.91-13.69-19.11-22.01-27.94c-16.73-17.65-36.89-33.22-57.51-49.13c-20.62-15.89-42-32.54-60.36-52.43
			c-9.13-9.97-17.61-20.69-24.45-32.37c-1.77-2.87-3.34-5.87-4.86-8.88c-1.61-2.94-2.9-6.08-4.25-9.13
			c-1.35-3.06-2.3-6.31-3.44-9.41C200.55,315.12,199.78,311.87,198.95,308.69z"/>
		<path class="st13" d="M437.49,520.05c-6.83-8.98-9.24-21.48-7.94-33.41c1.32-12.11,6.38-23.61,13.05-33.49
			c13.59-19.77,32.61-33.87,51.45-45.18c18.97-11.4,38.02-20.2,55.62-30.66c17.71-10.46,34.2-22.11,48.37-39.31
			c-1.64,11.07-6.41,21.78-12.71,31.35c-6.34,9.58-14.22,18.08-22.69,25.59c-17.08,15.11-36.39,26.16-54.27,36.89
			c-17.93,10.71-34.98,21.42-48.81,35.04c-6.86,6.78-12.74,14.38-16.82,23.15C438.67,498.87,436.41,508.93,437.49,520.05z"/>
		<path class="st14" d="M387.48,562.14c2.44,26.02-0.28,52.31-6.28,77.82c-3,12.77-6.93,25.33-11.65,37.6
			c-1.14,3.09-2.4,6.12-3.7,9.14c-1.27,3.02-2.57,6.04-4.08,9.23c-3.06,6.28-6.92,13.03-12.65,19.23
			c-5.94,6.24-13.59,11.35-23.06,13.59c-4.71,1.05-9.98,1.28-15.03,0.23c-4.99-0.96-9.73-3.01-13.58-5.71
			c-7.76-5.43-12.54-12.2-16.08-18.75c-1.77-3.3-3.27-6.59-4.56-9.88c-1.19-3.21-2.31-6.35-3.35-9.56
			c-8.17-25.59-10.54-52.91-5.25-78.55c6.35,25.3,14.42,48.7,25.52,70.28c1.35,2.69,2.81,5.38,4.26,7.96c1.4,2.48,2.83,4.86,4.36,7
			c3.07,4.26,6.4,7.75,9.39,9.28c1.49,0.76,2.74,1.2,4.03,1.33c1.21,0.18,2.45,0.02,3.92-0.4c2.95-0.76,6.43-2.88,9.17-5.92
			c3.02-3.1,5.73-7.43,8.39-12.5c2.72-5.08,5.43-10.9,8.08-16.38c5.33-11.13,10.32-22.46,15.11-33.94
			C370.12,610.3,378.48,586.64,387.48,562.14z"/>
		<path class="st12" d="M481.07,493.21c0.4-5.38,2.56-10.67,5.73-15.25c3.23-4.57,7.41-8.4,11.87-11.72
			c8.95-6.63,19.24-11.04,28.85-15.5c19.33-8.76,38.15-18.28,55.51-29.53c17.16-11.42,33.11-24.47,44.87-40.45
			c5.88-7.94,10.96-16.43,14.72-25.41c3.76-9,6.3-18.54,7.71-28.27c3.01-19.46,1.34-39.77-3.95-59.08
			c-2.6-9.68-6.13-19.14-10.59-28.17c-4.46-8.99-9.8-17.69-15.81-25.94c-11.99-16.58-27.01-31.11-43.48-44.03
			c-16.49-12.99-34.83-23.77-53.9-33.64c20.76,5.54,40.85,14.07,59.67,25.16c18.69,11.26,36.16,25.23,50.57,42.31
			c14.46,16.92,26,37.05,32.55,58.75c3.35,10.83,5.55,22.04,6.64,33.4c0.93,11.38,0.6,22.91-1.06,34.3
			c-1.76,11.37-4.79,22.63-9.43,33.29c-4.77,10.62-10.87,20.51-18.06,29.45c-7.17,8.95-15.35,16.95-24.22,23.86
			c-8.8,7-18.17,13.07-27.81,18.46c-19.38,10.58-39.71,18.59-60.29,25.02c-10.32,3.12-20.24,6.11-29.44,10.85
			c-4.57,2.36-8.88,5.21-12.52,8.85C485.53,483.55,482.67,488.06,481.07,493.21z"/>
		<path class="st11" d="M558.87,472.43c30.47-11.83,57.1-29.91,78.46-52.55c21.35-22.59,37.42-49.73,45.81-79.03
			c8.38-29.3,9.15-60.83,3.02-91.29c-6.11-30.52-19.1-59.95-38.64-86.16c25.92,20.17,44.78,49.82,54.56,82.13
			c9.8,32.36,10.67,67.95,1.13,101.08c-9.5,33.14-29.1,62.84-54.56,85.09C623.23,453.9,591.54,469.04,558.87,472.43z"/>
		<path class="st14" d="M595.49,390.41c9.1-16.11,15.16-32.74,18.06-49.74c2.91-16.95,2.66-34.14-1.02-50.48
			c-3.7-16.33-10.84-31.96-20.74-46.03c-9.9-14.11-22.5-26.54-37.62-37.21c18.16,4.04,35.02,14.56,48.19,28.53
			c13.18,14.01,22.84,31.72,27.13,50.89c4.32,19.16,3.18,39.3-2.72,57.6C620.86,362.23,610.15,378.95,595.49,390.41z"/>
		<linearGradient id="SVGID_1_" gradientUnits="userSpaceOnUse" x1="369.2097" y1="538.468" x2="393.5678" y2="655.9091">
			<stop  offset="0" style="stop-color:#00C853"/>
			<stop  offset="1" style="stop-color:#00C853;stop-opacity:0"/>
		</linearGradient>
		<path class="st15" d="M384.5,843.75c15.79-50.4,28.14-101.33,39.42-152.53c4.25-19.5,8.12-39.46,10.39-59.97
			c-7.01-111.24-97.06-169.95-97.06-169.95s-0.01,0-0.01,0c6.75,5.91,13.22,11.98,19.22,18.32c8.32,8.83,15.9,18.03,22.01,27.94
			c6.17,9.83,10.99,20.34,14.63,31.54c3.69,11.16,6.24,22.87,7.73,34.87c1.67,11.99,2.18,24.21,2.12,36.63
			c-0.09,24.84-3.09,50.25-6.03,76.15C390.94,738.73,385.98,790.97,384.5,843.75z"/>
		<linearGradient id="SVGID_2_" gradientUnits="userSpaceOnUse" x1="320.0967" y1="712.8554" x2="295.7385" y2="682.4077">
			<stop  offset="0" style="stop-color:#FFAB00"/>
			<stop  offset="1" style="stop-color:#FFAB00;stop-opacity:0"/>
		</linearGradient>
		<path class="st16" d="M333.85,689.53c0,0-0.01-0.03-0.01-0.03c-1.6,2.53-3.24,4.79-5,6.59c-2.73,3.04-6.22,5.17-9.17,5.92
			c-1.47,0.42-2.71,0.58-3.92,0.4c-1.29-0.13-2.54-0.57-4.03-1.33c-2.98-1.53-6.32-5.02-9.39-9.28c-1.54-2.14-2.96-4.52-4.36-7
			c-1.45-2.59-2.91-5.27-4.26-7.96c-11.1-21.58-19.17-44.99-25.52-70.28c-5.29,25.64-2.92,52.96,5.25,78.55
			c1.03,3.21,2.15,6.35,3.35,9.56c1.29,3.29,2.79,6.58,4.56,9.88c0.98,1.81,2.07,3.64,3.28,5.45
			C314.14,729.61,333.85,689.53,333.85,689.53z"/>
		<linearGradient id="SVGID_3_" gradientUnits="userSpaceOnUse" x1="486.8879" y1="442.2447" x2="446.8709" y2="478.202">
			<stop  offset="0" style="stop-color:#A80000"/>
			<stop  offset="0.287" style="stop-color:#AD0000;stop-opacity:0.713"/>
			<stop  offset="0.6051" style="stop-color:#BA0000;stop-opacity:0.3949"/>
			<stop  offset="0.9369" style="stop-color:#D00000;stop-opacity:0.0631"/>
			<stop  offset="1" style="stop-color:#D50000;stop-opacity:0"/>
		</linearGradient>
		<path class="st17" d="M494.04,407.97c-18.84,11.32-37.86,25.41-51.45,45.18c-6.67,9.88-11.73,21.38-13.05,33.49
			c-1.3,11.92,1.11,24.43,7.94,33.41c-1.07-11.12,1.18-21.18,5.24-30.02c0.92-1.99,1.97-3.9,3.07-5.77c0,0-0.01-0.02-0.01-0.02
			s9.52-44.54,62.4-84.36C503.47,402.47,498.75,405.14,494.04,407.97z"/>
		<linearGradient id="SVGID_4_" gradientUnits="userSpaceOnUse" x1="418.6698" y1="378.7232" x2="398.9514" y2="414.6805">
			<stop  offset="0.0477" style="stop-color:#0091EA"/>
			<stop  offset="1" style="stop-color:#0091EA;stop-opacity:0"/>
		</linearGradient>
		<path class="st18" d="M372.72,378.4c-3.24,5.82-5.11,12.52-5.11,19.65c0,22.34,18.11,40.45,40.45,40.45
			c16.66,0,30.95-10.07,37.15-24.45C425.01,385.81,388.91,379.7,372.72,378.4z"/>
	</g>
</g>
<g id="Logo_x5F_3" class="st0">
	<g class="st4">
		<g>
			
				<linearGradient id="SVGID_5_" gradientUnits="userSpaceOnUse" x1="169.6785" y1="806.9116" x2="551.3383" y2="697.1688" gradientTransform="matrix(-0.5963 0.7046 -0.8744 -0.6438 1438.2173 535.969)">
				<stop  offset="0" style="stop-color:#ED59F8"/>
				<stop  offset="0.1054" style="stop-color:#D85CF8"/>
				<stop  offset="0.3235" style="stop-color:#A264FA"/>
				<stop  offset="0.6324" style="stop-color:#4B70FB"/>
				<stop  offset="0.878" style="stop-color:#027AFD"/>
			</linearGradient>
			<path class="st19" d="M538.11,417.95c-3.13,15.43-5.44,29.54-9.19,42.14c-4.43-36.25-11.58-71.42-33.07-97.83
				c-0.42-56.75,9.7-143.04,63.61-187.5c64.21-52.95,135.41-5.8,135.41-5.8C594.23,177.4,570.08,260.49,538.11,417.95z"/>
			
				<linearGradient id="SVGID_6_" gradientUnits="userSpaceOnUse" x1="401.7184" y1="715.2615" x2="537.0164" y2="787.0524" gradientTransform="matrix(-0.9632 0.2688 -0.2688 -0.9632 1233.7043 1046.3558)">
				<stop  offset="0" style="stop-color:#FF2E64"/>
				<stop  offset="0.5926" style="stop-color:#FFAD00"/>
				<stop  offset="1" style="stop-color:#CBE900"/>
			</linearGradient>
			<path class="st20" d="M494.04,527.25c-6.04-24.27-9.6-48.8-14.38-70.98c4.01-14.46,7.6-31.48,10.56-51.44
				c2.24-15.12,4.07-29.28,5.61-42.56c21.5,26.41,28.64,61.58,33.08,97.81c6.93,57.16,7.05,116.95,45.36,149.02
				c0,0,0.18,0.19,0.64,0.55c1.02,0.81,2.02,1.57,3.04,2.38c1.36,0.96,3.07,2.07,5.23,3.23c18.56,9.32,46.88,1.66,71.44-38.94
				c35.37-58.36,78.09-225.32-23.58-300.21c0,0,95.4-20.53,118.26,88.47c16.86,80.95-11.2,165.53-54.61,223.03
				c-0.18,0.23-0.4,0.54-0.63,0.79c-2.75,3.69-5.65,7.24-8.54,10.67c-57.3,67.77-108.86,44.75-130.35,28.88
				C518.98,601.38,503.42,564.6,494.04,527.25z"/>
			
				<linearGradient id="SVGID_7_" gradientUnits="userSpaceOnUse" x1="753.2763" y1="758.6208" x2="630.9614" y2="673.4125" gradientTransform="matrix(-0.9632 0.2688 -0.2688 -0.9632 1233.7043 1046.3558)">
				<stop  offset="0" style="stop-color:#35D78E"/>
				<stop  offset="0.5587" style="stop-color:#00F1FD"/>
				<stop  offset="1" style="stop-color:#25A0FD"/>
			</linearGradient>
			<path class="st21" d="M248.82,577.4l-0.08-0.28c-3.38-17.58-3.86-35.9-1.6-49.39c7.79-46.77,26.99-79.9,43.41-102.27l30.84,18.62
				c-64.69,74.46-60.17,176.7-23.93,171.65c1.59-0.2,3-0.84,4.27-1.74c0.5-0.38,0.74-0.63,0.74-0.63
				c16.37-13.83,11.32-82.35,74.25-77.31c41.96,3.46,81.53,29.09,102.89-79.7c4.83,22.11,8.38,46.64,14.42,70.91
				c-31.92,54.35-94.45,45.3-108.79,42.84c-35.94-6.11-41.3,3.06-47.48,30.92c-5.41,24.29-29.44,52.14-63.94,26.74
				C261.12,618.44,252.86,598.45,248.82,577.4z"/>
			
				<linearGradient id="SVGID_8_" gradientUnits="userSpaceOnUse" x1="563.6061" y1="876.2358" x2="516.5765" y2="736.8267" gradientTransform="matrix(-0.5963 0.7046 -0.8744 -0.6438 1438.2173 535.969)">
				<stop  offset="0.0507" style="stop-color:#35D78E"/>
				<stop  offset="1" style="stop-color:#CBE900"/>
			</linearGradient>
			<path class="st22" d="M290.57,425.44c12.9-17.25,34.62-41.7,59.73-60.38c69.91-51.99,111.43-32.09,126.57-20.94
				c7.35,5.42,13.64,11.5,18.94,18.15c-1.55,13.33-3.4,27.49-5.64,42.57c-2.96,19.97-6.53,36.99-10.56,51.48
				c-6.49-29.43-15.31-54.69-35.71-69.7c-38.79-28.56-105.04,34.54-122.5,57.49L290.57,425.44z"/>
			<defs>
				<filter id="Adobe_OpacityMaskFilter" filterUnits="userSpaceOnUse" x="583.17" y="274.58" width="171.08" height="348.93">
					<feFlood  style="flood-color:white;flood-opacity:1" result="back"/>
					<feBlend  in="SourceGraphic" in2="back" mode="normal"/>
				</filter>
			</defs>
			<mask maskUnits="userSpaceOnUse" x="583.17" y="274.58" width="171.08" height="348.93" id="SVGID_9_">
				<g class="st23">
					<defs>
						<filter id="Adobe_OpacityMaskFilter_1_" filterUnits="userSpaceOnUse" x="583.17" y="274.58" width="171.08" height="348.93">
							<feFlood  style="flood-color:white;flood-opacity:1" result="back"/>
							<feBlend  in="SourceGraphic" in2="back" mode="normal"/>
						</filter>
					</defs>
					<mask maskUnits="userSpaceOnUse" x="583.17" y="274.58" width="171.08" height="348.93" id="SVGID_9_">
						<g class="st24">
						</g>
					</mask>
					
						<linearGradient id="SVGID_10_" gradientUnits="userSpaceOnUse" x1="479.583" y1="577.0719" x2="382.2474" y2="731.7047" gradientTransform="matrix(-0.9632 0.2688 -0.2688 -0.9632 1233.7043 1046.3558)">
						<stop  offset="0.0168" style="stop-color:#FFFFFF"/>
						<stop  offset="1" style="stop-color:#000000"/>
					</linearGradient>
					<path class="st25" d="M634.58,622.24c-25.05,3.88-42.02-1.92-51.41-6.98c18.56,9.32,46.88,1.66,71.44-38.94
						c35.37-58.36,78.09-225.32-23.58-300.21c0,0,95.4-20.53,118.26,88.47c16.86,80.95-11.2,165.53-54.61,223.03
						c-0.18,0.23-0.4,0.54-0.63,0.79C687.38,596.42,667.46,617.15,634.58,622.24z"/>
				</g>
			</mask>
			
				<linearGradient id="SVGID_11_" gradientUnits="userSpaceOnUse" x1="479.583" y1="577.0719" x2="382.2474" y2="731.7047" gradientTransform="matrix(-0.9632 0.2688 -0.2688 -0.9632 1233.7043 1046.3558)">
				<stop  offset="0.0168" style="stop-color:#900034"/>
				<stop  offset="1" style="stop-color:#900034"/>
			</linearGradient>
			<path class="st26" d="M634.58,622.24c-25.05,3.88-42.02-1.92-51.41-6.98c18.56,9.32,46.88,1.66,71.44-38.94
				c35.37-58.36,78.09-225.32-23.58-300.21c0,0,95.4-20.53,118.26,88.47c16.86,80.95-11.2,165.53-54.61,223.03
				c-0.18,0.23-0.4,0.54-0.63,0.79C687.38,596.42,667.46,617.15,634.58,622.24z"/>
			
				<linearGradient id="SVGID_12_" gradientUnits="userSpaceOnUse" x1="515.5412" y1="595.9034" x2="517.2874" y2="596.83" gradientTransform="matrix(-0.9632 0.2688 -0.2688 -0.9632 1233.7043 1046.3558)">
				<stop  offset="0" style="stop-color:#FF2E64"/>
				<stop  offset="0.5926" style="stop-color:#FFAD00"/>
				<stop  offset="1" style="stop-color:#C1DA00"/>
			</linearGradient>
			<path class="st27" d="M574.9,609.65c1.02,0.81,2.02,1.57,3.04,2.38C576.45,611.05,575.47,610.16,574.9,609.65z"/>
			<defs>
				<filter id="Adobe_OpacityMaskFilter_2_" filterUnits="userSpaceOnUse" x="245.75" y="425.46" width="75.64" height="194.36">
					<feFlood  style="flood-color:white;flood-opacity:1" result="back"/>
					<feBlend  in="SourceGraphic" in2="back" mode="normal"/>
				</filter>
			</defs>
			<mask maskUnits="userSpaceOnUse" x="245.75" y="425.46" width="75.64" height="194.36" id="SVGID_13_">
				<g class="st28">
					<defs>
						<filter id="Adobe_OpacityMaskFilter_3_" filterUnits="userSpaceOnUse" x="245.75" y="425.46" width="75.64" height="194.36">
							<feFlood  style="flood-color:white;flood-opacity:1" result="back"/>
							<feBlend  in="SourceGraphic" in2="back" mode="normal"/>
						</filter>
					</defs>
					<mask maskUnits="userSpaceOnUse" x="245.75" y="425.46" width="75.64" height="194.36" id="SVGID_13_">
						<g class="st29">
						</g>
					</mask>
					
						<linearGradient id="SVGID_14_" gradientUnits="userSpaceOnUse" x1="838.6224" y1="706.3988" x2="792.5427" y2="737.9815" gradientTransform="matrix(-0.9632 0.2688 -0.2688 -0.9632 1233.7043 1046.3558)">
						<stop  offset="0" style="stop-color:#FFFFFF"/>
						<stop  offset="1" style="stop-color:#000000"/>
					</linearGradient>
					<path class="st30" d="M248.82,577.4l-0.08-0.28c-3.38-17.58-3.86-35.9-1.6-49.39c7.79-46.77,26.99-79.9,43.41-102.27
						l30.84,18.62c-64.69,74.46-60.17,176.7-23.93,171.65c1.59-0.2,3-0.84,4.27-1.74c-3.21,2.48-16.81,11.58-33.77,0.35
						C258.25,607.91,252.3,591.84,248.82,577.4z"/>
				</g>
			</mask>
			
				<linearGradient id="SVGID_15_" gradientUnits="userSpaceOnUse" x1="838.6224" y1="706.3988" x2="792.5427" y2="737.9815" gradientTransform="matrix(-0.9632 0.2688 -0.2688 -0.9632 1233.7043 1046.3558)">
				<stop  offset="0" style="stop-color:#008E7D"/>
				<stop  offset="1" style="stop-color:#008E7D"/>
			</linearGradient>
			<path class="st31" d="M248.82,577.4l-0.08-0.28c-3.38-17.58-3.86-35.9-1.6-49.39c7.79-46.77,26.99-79.9,43.41-102.27l30.84,18.62
				c-64.69,74.46-60.17,176.7-23.93,171.65c1.59-0.2,3-0.84,4.27-1.74c-3.21,2.48-16.81,11.58-33.77,0.35
				C258.25,607.91,252.3,591.84,248.82,577.4z"/>
		</g>
	</g>
	<g class="st4">
		<g>
			<path d="M572.55,728.43c-7.33-5.21-18.03-7.81-32.1-7.81h-62.49c-4.12,0-7.18-0.6-9.18-1.8c-0.44-0.26-0.81-0.57-1.16-0.92
				c-1.23-1.24-1.85-3.02-1.85-5.35c0-1.61,0.3-2.94,0.89-4.01c-0.63-2.89-1.57-5.63-2.81-8.24c-2.52-5.26-6.18-9.79-10.99-13.56
				c-2.03-1.6-4.27-3.04-6.7-4.34c0,0,0,0-0.01,0c-2.24-1.21-4.64-2.29-7.22-3.24c-1.22-0.45-2.48-0.87-3.77-1.26
				c-6.97-2.12-14.93-3.19-23.86-3.19H339.2l-23.52,29.88h98.89c4.1,0,7.51,0.65,10.24,1.97c0.94,0.43,1.78,0.95,2.55,1.55
				c2.5,1.94,3.98,4.47,4.41,7.56c0.4,2.94,1.14,5.71,2.23,8.29c1.72,4.06,4.35,7.53,7.9,10.39c3.55,2.86,8.01,5.09,13.39,6.69
				c1.33,0.4,2.73,0.74,4.19,1.04c4.43,0.91,9.44,1.36,15.04,1.36h62.49c4.23,0,7.32,0.63,9.27,1.89c1.94,1.26,2.92,3.38,2.92,6.35
				c0,2.98-0.97,5.12-2.92,6.44c-1.95,1.32-5.04,1.97-9.27,1.97h-86.87l-22.83,29.53h106.96c8.7,0,16.16-0.86,22.4-2.58
				c6.24-1.72,11.36-4.18,15.37-7.38c4.01-3.2,6.92-7.15,8.76-11.85c1.83-4.69,2.75-9.96,2.75-15.8
				C583.54,741.51,579.87,733.64,572.55,728.43z"/>
			<g>
				<path d="M452.77,748.55c0.37-0.27,0.73-0.56,1.09-0.85c-0.18-0.04-0.34-0.08-0.5-0.14c-6.2-1.84-11.49-4.52-15.71-7.92
					c-4.34-3.5-7.64-7.8-9.78-12.78c-0.16,0.14-0.33,0.27-0.5,0.41c-3.04,2.4-7.3,3.59-12.79,3.59h-98.89v58.72h35.36v-29.35h60.09
					c8.94,0,16.89-1.03,23.87-3.09C441.97,755.07,447.9,752.21,452.77,748.55z"/>
				<path d="M469.95,697.38c1.17,2.44,2.12,5.01,2.82,7.68c1.48-0.27,3.21-0.41,5.18-0.41h79.66l22.83-29.87H480.7
					c-8.69,0-16.17,0.85-22.41,2.58c-1.68,0.46-3.27,0.98-4.77,1.53c1.25,0.8,2.41,1.64,3.53,2.51
					C462.64,685.81,467,691.19,469.95,697.38z"/>
			</g>
		</g>
		<g>
			<path d="M676.3,674.72h-72.2c-12.52,0-22.72,9.55-22.4,21.19c0.04,1.64-0.42,4.54,5.85,18.04c8.3,17.84,12.63,26.83,21.58,30.13
				c4.47,1.65,8.94,1.67,12.67,1.17h21.77c13.62,0,24.66-10.27,24.66-22.94h-51v-23.51h34.41c1.71-0.01,10.42-0.2,17.44-6.72
				C676.63,685.06,676.37,676.16,676.3,674.72z"/>
			<polygon class="st0" points="617.54,789.64 585.11,789.64 585.11,747.58 			"/>
		</g>
		<rect x="585.87" y="697.28" width="28.55" height="92.36"/>
	</g>
	<text transform="matrix(1 0 0 1 276.5273 824.4941)" class="st4 st9 st32">Pakistan School Sports Federation</text>
</g>
<g id="Logo_x5F_3_1_" class="st0">
	<g class="st4">
		<g>
			
				<linearGradient id="SVGID_16_" gradientUnits="userSpaceOnUse" x1="169.6785" y1="806.9116" x2="551.3383" y2="697.1688" gradientTransform="matrix(-0.5963 0.7046 -0.8744 -0.6438 1438.2173 535.969)">
				<stop  offset="0" style="stop-color:#ED59F8"/>
				<stop  offset="0.1054" style="stop-color:#D85CF8"/>
				<stop  offset="0.3235" style="stop-color:#A264FA"/>
				<stop  offset="0.6324" style="stop-color:#4B70FB"/>
				<stop  offset="0.878" style="stop-color:#027AFD"/>
			</linearGradient>
			<path class="st33" d="M538.11,417.95c-3.13,15.43-5.44,29.54-9.19,42.14c-4.43-36.25-11.58-71.42-33.07-97.83
				c-0.42-56.75,9.7-143.04,63.61-187.5c64.21-52.95,135.41-5.8,135.41-5.8C594.23,177.4,570.08,260.49,538.11,417.95z"/>
			
				<linearGradient id="SVGID_17_" gradientUnits="userSpaceOnUse" x1="401.7184" y1="715.2615" x2="537.0164" y2="787.0524" gradientTransform="matrix(-0.9632 0.2688 -0.2688 -0.9632 1233.7043 1046.3558)">
				<stop  offset="0" style="stop-color:#FF2E64"/>
				<stop  offset="0.5926" style="stop-color:#FFAD00"/>
				<stop  offset="1" style="stop-color:#CBE900"/>
			</linearGradient>
			<path class="st34" d="M494.04,527.25c-6.04-24.27-9.6-48.8-14.38-70.98c4.01-14.46,7.6-31.48,10.56-51.44
				c2.24-15.12,4.07-29.28,5.61-42.56c21.5,26.41,28.64,61.58,33.08,97.81c6.93,57.16,7.05,116.95,45.36,149.02
				c0,0,0.18,0.19,0.64,0.55c1.02,0.81,2.02,1.57,3.04,2.38c1.36,0.96,3.07,2.07,5.23,3.23c18.56,9.32,46.88,1.66,71.44-38.94
				c35.37-58.36,78.09-225.32-23.58-300.21c0,0,95.4-20.53,118.26,88.47c16.86,80.95-11.2,165.53-54.61,223.03
				c-0.18,0.23-0.4,0.54-0.63,0.79c-2.75,3.69-5.65,7.24-8.54,10.67c-57.3,67.77-108.86,44.75-130.35,28.88
				C518.98,601.38,503.42,564.6,494.04,527.25z"/>
			
				<linearGradient id="SVGID_18_" gradientUnits="userSpaceOnUse" x1="753.2763" y1="758.6208" x2="630.9614" y2="673.4125" gradientTransform="matrix(-0.9632 0.2688 -0.2688 -0.9632 1233.7043 1046.3558)">
				<stop  offset="0" style="stop-color:#35D78E"/>
				<stop  offset="0.5587" style="stop-color:#00F1FD"/>
				<stop  offset="1" style="stop-color:#25A0FD"/>
			</linearGradient>
			<path class="st35" d="M248.82,577.4l-0.08-0.28c-3.38-17.58-3.86-35.9-1.6-49.39c7.79-46.77,26.99-79.9,43.41-102.27l30.84,18.62
				c-64.69,74.46-60.17,176.7-23.93,171.65c1.59-0.2,3-0.84,4.27-1.74c0.5-0.38,0.74-0.63,0.74-0.63
				c16.37-13.83,11.32-82.35,74.25-77.31c41.96,3.46,81.53,29.09,102.89-79.7c4.83,22.11,8.38,46.64,14.42,70.91
				c-31.92,54.35-94.45,45.3-108.79,42.84c-35.94-6.11-41.3,3.06-47.48,30.92c-5.41,24.29-29.44,52.14-63.94,26.74
				C261.12,618.44,252.86,598.45,248.82,577.4z"/>
			
				<linearGradient id="SVGID_19_" gradientUnits="userSpaceOnUse" x1="563.6061" y1="876.2358" x2="516.5765" y2="736.8267" gradientTransform="matrix(-0.5963 0.7046 -0.8744 -0.6438 1438.2173 535.969)">
				<stop  offset="0.0507" style="stop-color:#35D78E"/>
				<stop  offset="1" style="stop-color:#CBE900"/>
			</linearGradient>
			<path class="st36" d="M290.57,425.44c12.9-17.25,34.62-41.7,59.73-60.38c69.91-51.99,111.43-32.09,126.57-20.94
				c7.35,5.42,13.64,11.5,18.94,18.15c-1.55,13.33-3.4,27.49-5.64,42.57c-2.96,19.97-6.53,36.99-10.56,51.48
				c-6.49-29.43-15.31-54.69-35.71-69.7c-38.79-28.56-105.04,34.54-122.5,57.49L290.57,425.44z"/>
			<defs>
				<filter id="Adobe_OpacityMaskFilter_4_" filterUnits="userSpaceOnUse" x="583.17" y="274.58" width="171.08" height="348.93">
					<feFlood  style="flood-color:white;flood-opacity:1" result="back"/>
					<feBlend  in="SourceGraphic" in2="back" mode="normal"/>
				</filter>
			</defs>
			<mask maskUnits="userSpaceOnUse" x="583.17" y="274.58" width="171.08" height="348.93" id="SVGID_20_">
				<g class="st37">
					<defs>
						<filter id="Adobe_OpacityMaskFilter_5_" filterUnits="userSpaceOnUse" x="583.17" y="274.58" width="171.08" height="348.93">
							<feFlood  style="flood-color:white;flood-opacity:1" result="back"/>
							<feBlend  in="SourceGraphic" in2="back" mode="normal"/>
						</filter>
					</defs>
					<mask maskUnits="userSpaceOnUse" x="583.17" y="274.58" width="171.08" height="348.93" id="SVGID_20_">
						<g class="st38">
						</g>
					</mask>
					
						<linearGradient id="SVGID_21_" gradientUnits="userSpaceOnUse" x1="479.583" y1="577.0719" x2="382.2474" y2="731.7047" gradientTransform="matrix(-0.9632 0.2688 -0.2688 -0.9632 1233.7043 1046.3558)">
						<stop  offset="0.0168" style="stop-color:#FFFFFF"/>
						<stop  offset="1" style="stop-color:#000000"/>
					</linearGradient>
					<path class="st39" d="M634.58,622.24c-25.05,3.88-42.02-1.92-51.41-6.98c18.56,9.32,46.88,1.66,71.44-38.94
						c35.37-58.36,78.09-225.32-23.58-300.21c0,0,95.4-20.53,118.26,88.47c16.86,80.95-11.2,165.53-54.61,223.03
						c-0.18,0.23-0.4,0.54-0.63,0.79C687.38,596.42,667.46,617.15,634.58,622.24z"/>
				</g>
			</mask>
			
				<linearGradient id="SVGID_22_" gradientUnits="userSpaceOnUse" x1="479.583" y1="577.0719" x2="382.2474" y2="731.7047" gradientTransform="matrix(-0.9632 0.2688 -0.2688 -0.9632 1233.7043 1046.3558)">
				<stop  offset="0.0168" style="stop-color:#900034"/>
				<stop  offset="1" style="stop-color:#900034"/>
			</linearGradient>
			<path class="st40" d="M634.58,622.24c-25.05,3.88-42.02-1.92-51.41-6.98c18.56,9.32,46.88,1.66,71.44-38.94
				c35.37-58.36,78.09-225.32-23.58-300.21c0,0,95.4-20.53,118.26,88.47c16.86,80.95-11.2,165.53-54.61,223.03
				c-0.18,0.23-0.4,0.54-0.63,0.79C687.38,596.42,667.46,617.15,634.58,622.24z"/>
			
				<linearGradient id="SVGID_23_" gradientUnits="userSpaceOnUse" x1="515.5412" y1="595.9034" x2="517.2874" y2="596.83" gradientTransform="matrix(-0.9632 0.2688 -0.2688 -0.9632 1233.7043 1046.3558)">
				<stop  offset="0" style="stop-color:#FF2E64"/>
				<stop  offset="0.5926" style="stop-color:#FFAD00"/>
				<stop  offset="1" style="stop-color:#C1DA00"/>
			</linearGradient>
			<path class="st41" d="M574.9,609.65c1.02,0.81,2.02,1.57,3.04,2.38C576.45,611.05,575.47,610.16,574.9,609.65z"/>
			<defs>
				<filter id="Adobe_OpacityMaskFilter_6_" filterUnits="userSpaceOnUse" x="245.75" y="425.46" width="75.64" height="194.36">
					<feFlood  style="flood-color:white;flood-opacity:1" result="back"/>
					<feBlend  in="SourceGraphic" in2="back" mode="normal"/>
				</filter>
			</defs>
			<mask maskUnits="userSpaceOnUse" x="245.75" y="425.46" width="75.64" height="194.36" id="SVGID_24_">
				<g class="st42">
					<defs>
						<filter id="Adobe_OpacityMaskFilter_7_" filterUnits="userSpaceOnUse" x="245.75" y="425.46" width="75.64" height="194.36">
							<feFlood  style="flood-color:white;flood-opacity:1" result="back"/>
							<feBlend  in="SourceGraphic" in2="back" mode="normal"/>
						</filter>
					</defs>
					<mask maskUnits="userSpaceOnUse" x="245.75" y="425.46" width="75.64" height="194.36" id="SVGID_24_">
						<g class="st43">
						</g>
					</mask>
					
						<linearGradient id="SVGID_25_" gradientUnits="userSpaceOnUse" x1="838.6224" y1="706.3988" x2="792.5427" y2="737.9815" gradientTransform="matrix(-0.9632 0.2688 -0.2688 -0.9632 1233.7043 1046.3558)">
						<stop  offset="0" style="stop-color:#FFFFFF"/>
						<stop  offset="1" style="stop-color:#000000"/>
					</linearGradient>
					<path class="st44" d="M248.82,577.4l-0.08-0.28c-3.38-17.58-3.86-35.9-1.6-49.39c7.79-46.77,26.99-79.9,43.41-102.27
						l30.84,18.62c-64.69,74.46-60.17,176.7-23.93,171.65c1.59-0.2,3-0.84,4.27-1.74c-3.21,2.48-16.81,11.58-33.77,0.35
						C258.25,607.91,252.3,591.84,248.82,577.4z"/>
				</g>
			</mask>
			
				<linearGradient id="SVGID_26_" gradientUnits="userSpaceOnUse" x1="838.6224" y1="706.3988" x2="792.5427" y2="737.9815" gradientTransform="matrix(-0.9632 0.2688 -0.2688 -0.9632 1233.7043 1046.3558)">
				<stop  offset="0" style="stop-color:#008E7D"/>
				<stop  offset="1" style="stop-color:#008E7D"/>
			</linearGradient>
			<path class="st45" d="M248.82,577.4l-0.08-0.28c-3.38-17.58-3.86-35.9-1.6-49.39c7.79-46.77,26.99-79.9,43.41-102.27l30.84,18.62
				c-64.69,74.46-60.17,176.7-23.93,171.65c1.59-0.2,3-0.84,4.27-1.74c-3.21,2.48-16.81,11.58-33.77,0.35
				C258.25,607.91,252.3,591.84,248.82,577.4z"/>
		</g>
	</g>
	<g class="st4">
		<g>
			<path d="M572.55,728.43c-7.33-5.21-18.03-7.81-32.1-7.81h-62.49c-4.12,0-7.18-0.6-9.18-1.8c-0.44-0.26-0.81-0.57-1.16-0.92
				c-1.23-1.24-1.85-3.02-1.85-5.35c0-1.61,0.3-2.94,0.89-4.01c-0.63-2.89-1.57-5.63-2.81-8.24c-2.52-5.26-6.18-9.79-10.99-13.56
				c-2.03-1.6-4.27-3.04-6.7-4.34c0,0,0,0-0.01,0c-2.24-1.21-4.64-2.29-7.22-3.24c-1.22-0.45-2.48-0.87-3.77-1.26
				c-6.97-2.12-14.93-3.19-23.86-3.19H339.2l-23.52,29.88h98.89c4.1,0,7.51,0.65,10.24,1.97c0.94,0.43,1.78,0.95,2.55,1.55
				c2.5,1.94,3.98,4.47,4.41,7.56c0.4,2.94,1.14,5.71,2.23,8.29c1.72,4.06,4.35,7.53,7.9,10.39c3.55,2.86,8.01,5.09,13.39,6.69
				c1.33,0.4,2.73,0.74,4.19,1.04c4.43,0.91,9.44,1.36,15.04,1.36h62.49c4.23,0,7.32,0.63,9.27,1.89c1.94,1.26,2.92,3.38,2.92,6.35
				c0,2.98-0.97,5.12-2.92,6.44c-1.95,1.32-5.04,1.97-9.27,1.97h-86.87l-22.83,29.53h106.96c8.7,0,16.16-0.86,22.4-2.58
				c6.24-1.72,11.36-4.18,15.37-7.38c4.01-3.2,6.92-7.15,8.76-11.85c1.83-4.69,2.75-9.96,2.75-15.8
				C583.54,741.51,579.87,733.64,572.55,728.43z"/>
			<g>
				<path d="M452.77,748.55c0.37-0.27,0.73-0.56,1.09-0.85c-0.18-0.04-0.34-0.08-0.5-0.14c-6.2-1.84-11.49-4.52-15.71-7.92
					c-4.34-3.5-7.64-7.8-9.78-12.78c-0.16,0.14-0.33,0.27-0.5,0.41c-3.04,2.4-7.3,3.59-12.79,3.59h-98.89v58.72h35.36v-29.35h60.09
					c8.94,0,16.89-1.03,23.87-3.09C441.97,755.07,447.9,752.21,452.77,748.55z"/>
				<path d="M469.95,697.38c1.17,2.44,2.12,5.01,2.82,7.68c1.48-0.27,3.21-0.41,5.18-0.41h79.66l22.83-29.87H480.7
					c-8.69,0-16.17,0.85-22.41,2.58c-1.68,0.46-3.27,0.98-4.77,1.53c1.25,0.8,2.41,1.64,3.53,2.51
					C462.64,685.81,467,691.19,469.95,697.38z"/>
			</g>
		</g>
		<g>
			<path d="M676.3,674.72h-72.2c-12.52,0-22.72,9.55-22.4,21.19c0.04,1.64-0.42,4.54,5.85,18.04c8.3,17.84,12.63,26.83,21.58,30.13
				c4.47,1.65,8.94,1.67,12.67,1.17h21.77c13.62,0,24.66-10.27,24.66-22.94h-51v-23.51h34.41c1.71-0.01,10.42-0.2,17.44-6.72
				C676.63,685.06,676.37,676.16,676.3,674.72z"/>
			<polygon class="st0" points="617.54,789.64 585.11,789.64 585.11,747.58 			"/>
		</g>
		<rect x="585.87" y="697.28" width="28.55" height="92.36"/>
	</g>
	<text transform="matrix(1 0 0 1 276.5273 824.4941)" class="st4 st9 st32">Pakistan School Sports Federation</text>
</g>
<g class="st0">
	<g class="st4">
		<rect x="234.9" y="761.22" class="st46" width="451.65" height="2.04"/>
	</g>
	<g class="st4">
		<rect x="234.9" y="726.47" class="st46" width="451.65" height="2.04"/>
	</g>
</g>
<g id="lOGO_x5F_2">
	<g>
		
			<linearGradient id="SVGID_27_" gradientUnits="userSpaceOnUse" x1="89.0872" y1="751.0097" x2="357.6907" y2="482.5591" gradientTransform="matrix(0.9982 -0.0603 0.0603 0.9982 110.7449 -33.5595)">
			<stop  offset="0" style="stop-color:#FCCC00"/>
			<stop  offset="0.148" style="stop-color:#FCEB2B"/>
			<stop  offset="1" style="stop-color:#006633"/>
		</linearGradient>
		<path class="st47" d="M467.75,512.95l-7.16-118.59c-121.51,9.69-213.41,114.94-206.03,237.15c3.69,61.08,31.5,114.95,73.58,152.96
			c-4.2-15.06-21.18-40.42-24.92-83.8C293.48,587.99,372.85,526.81,467.75,512.95z"/>
		
			<linearGradient id="SVGID_28_" gradientUnits="userSpaceOnUse" x1="108.4397" y1="784.522" x2="251.9444" y2="596.0983" gradientTransform="matrix(0.9982 -0.0603 0.0603 0.9982 110.7449 -33.5595)">
			<stop  offset="0" style="stop-color:#FCCC00"/>
			<stop  offset="0.148" style="stop-color:#FCEB2B"/>
			<stop  offset="1" style="stop-color:#006633"/>
		</linearGradient>
		<path class="st48" d="M467.75,512.95l21.24-56.03c-121.51,9.69-209.27,72.68-210.29,195.35c-0.43,51.99,23.29,103.63,49.44,132.2
			c-4.2-15.06-21.18-40.42-24.92-83.8C293.48,587.99,372.85,526.81,467.75,512.95z"/>
		
			<linearGradient id="SVGID_29_" gradientUnits="userSpaceOnUse" x1="329.5465" y1="330.5938" x2="396.2536" y2="68.2185" gradientTransform="matrix(0.7071 -0.7071 0.7071 0.7071 -138.8842 359.6203)">
			<stop  offset="0" style="stop-color:#FCCC00"/>
			<stop  offset="0.148" style="stop-color:#FCEB2B"/>
			<stop  offset="1" style="stop-color:#006633"/>
		</linearGradient>
		<path class="st49" d="M374.87,213.67c-4.79,6.73-15.44,0.2-20.52,7.06c-48.2,65.07-145.22,99.77-203.58,41.42
			c-17.04-17.04-34.68-46.51-39.59-87.89c-9.75,51.15,5.16,106.07,44.75,145.67c63.54,63.54,166.55,63.54,230.09,0
			c16.96-16.96,29.36-36.75,37.26-57.84L374.87,213.67z"/>
		
			<linearGradient id="SVGID_30_" gradientUnits="userSpaceOnUse" x1="237.4417" y1="112.3006" x2="460.6439" y2="334.3581" gradientTransform="matrix(0.7071 -0.7071 0.7071 0.7071 -138.8842 359.6203)">
			<stop  offset="0" style="stop-color:#FCCC00"/>
			<stop  offset="0.148" style="stop-color:#FCEB2B"/>
			<stop  offset="1" style="stop-color:#006633"/>
		</linearGradient>
		<path class="st50" d="M374.87,213.67c-4.79,6.73,21.27,34.43,16.19,41.29c-48.2,65.08-163.02,106.88-237.09,29.57
			c-16.67-17.4-45.41-70.45-42.78-110.27c-9.75,51.15,5.16,106.07,44.75,145.67c63.54,63.54,166.55,63.54,230.09,0
			c16.96-16.96,29.36-36.75,37.26-57.84L374.87,213.67z"/>
		
			<linearGradient id="SVGID_31_" gradientUnits="userSpaceOnUse" x1="375.2887" y1="652.1356" x2="586.1337" y2="278.184" gradientTransform="matrix(0.7071 -0.7071 0.7071 0.7071 -138.8842 359.6203)">
			<stop  offset="0" style="stop-color:#008D36"/>
			<stop  offset="0.1466" style="stop-color:#038F36"/>
			<stop  offset="0.2708" style="stop-color:#0E9436"/>
			<stop  offset="0.3867" style="stop-color:#1F9C36"/>
			<stop  offset="0.4971" style="stop-color:#38A837"/>
			<stop  offset="0.5382" style="stop-color:#43AD37"/>
			<stop  offset="1" style="stop-color:#FCEC2C"/>
		</linearGradient>
		<path class="st51" d="M638.75,442.71c-74.79,25.02-155.71-15.31-180.74-90.1c-25.03-74.79,15.31-155.71,90.1-180.74
			c51.4-17.2,105.69-3.52,142.75,30.99c-51.99-66.84-142.34-97-227.2-68.6c-107.51,35.98-165.5,152.3-129.52,259.81
			c35.98,107.51,152.3,165.5,259.81,129.52c84.86-28.4,138.85-106.86,140.14-191.53C725.28,381.91,690.14,425.51,638.75,442.71z"/>
		<g>
			
				<linearGradient id="SVGID_32_" gradientUnits="userSpaceOnUse" x1="565.0115" y1="667.8217" x2="389.4215" y2="487.8613" gradientTransform="matrix(0.7071 -0.7071 0.7071 0.7071 -138.8842 359.6203)">
				<stop  offset="0" style="stop-color:#008D36"/>
				<stop  offset="0.1466" style="stop-color:#038F36"/>
				<stop  offset="0.2708" style="stop-color:#0E9436"/>
				<stop  offset="0.3867" style="stop-color:#1F9C36"/>
				<stop  offset="0.4971" style="stop-color:#38A837"/>
				<stop  offset="0.5382" style="stop-color:#43AD37"/>
				<stop  offset="1" style="stop-color:#FCEC2C"/>
			</linearGradient>
			<path class="st52" d="M638.75,442.71c-58.41,19.54-120.54-0.78-156.89-46.24c-0.37,16.09,1.97,32.5,7.37,48.64
				c13.32,39.79,42.45,69.82,78.07,85.45c8.91-1.71,17.81-4.02,26.65-6.98c84.86-28.4,138.85-106.86,140.14-191.53
				C725.28,381.91,690.14,425.51,638.75,442.71z"/>
			
				<linearGradient id="SVGID_33_" gradientUnits="userSpaceOnUse" x1="293.1622" y1="357.7368" x2="699.1085" y2="357.7368" gradientTransform="matrix(0.7071 -0.7071 0.7071 0.7071 -138.8842 359.6203)">
				<stop  offset="0" style="stop-color:#008D36"/>
				<stop  offset="0.2173" style="stop-color:#038F36"/>
				<stop  offset="0.4013" style="stop-color:#0E9436"/>
				<stop  offset="0.5731" style="stop-color:#1F9C36"/>
				<stop  offset="0.7367" style="stop-color:#38A837"/>
				<stop  offset="0.7976" style="stop-color:#43AD37"/>
			</linearGradient>
			<path class="st53" d="M545.63,167.6c63.51-14.5,105.33-0.28,141.76,30.97c-52.48-63.81-140.71-92.09-223.73-64.31
				c-107.51,35.98-165.5,152.3-129.52,259.81c5.55,16.58,13.01,31.98,22.06,46.04C347.82,334.29,412.6,197.98,545.63,167.6z"/>
		</g>
		<g>
			
				<linearGradient id="SVGID_34_" gradientUnits="userSpaceOnUse" x1="419.8048" y1="165.2139" x2="553.2381" y2="165.2139" gradientTransform="matrix(-0.7071 -0.7071 0.7071 -0.7071 553.8078 593.7283)">
				<stop  offset="0" style="stop-color:#008D36"/>
				<stop  offset="0.1466" style="stop-color:#038F36"/>
				<stop  offset="0.2708" style="stop-color:#0E9436"/>
				<stop  offset="0.3867" style="stop-color:#1F9C36"/>
				<stop  offset="0.4971" style="stop-color:#38A837"/>
				<stop  offset="0.5382" style="stop-color:#43AD37"/>
				<stop  offset="1" style="stop-color:#FCEC2C"/>
			</linearGradient>
			<path class="st54" d="M279.43,85.71c26.05-26.05,68.3-26.06,94.35,0c26.05,26.05,26.05,68.3,0,94.35
				c-26.06,26.06-68.3,26.06-94.35,0C253.38,154,253.38,111.76,279.43,85.71z"/>
			
				<linearGradient id="SVGID_35_" gradientUnits="userSpaceOnUse" x1="463.4411" y1="87.307" x2="561.7079" y2="221.7772" gradientTransform="matrix(0.7071 -0.7071 0.7071 0.7071 -138.8842 359.6203)">
				<stop  offset="0" style="stop-color:#008D36"/>
				<stop  offset="0.1466" style="stop-color:#038F36"/>
				<stop  offset="0.2708" style="stop-color:#0E9436"/>
				<stop  offset="0.3867" style="stop-color:#1F9C36"/>
				<stop  offset="0.4971" style="stop-color:#38A837"/>
				<stop  offset="0.5382" style="stop-color:#43AD37"/>
				<stop  offset="1" style="stop-color:#FCEC2C"/>
			</linearGradient>
			<path class="st55" d="M279.43,85.7c-1.42,1.42-2.76,2.9-4.03,4.42c2.01,13.7,8.28,26.89,18.83,37.44
				c26.06,26.06,68.3,26.05,94.35,0c1.42-1.42,2.76-2.9,4.03-4.42c-2.01-13.7-8.29-26.89-18.83-37.44
				C347.73,59.65,305.49,59.65,279.43,85.7z"/>
		</g>
	</g>
</g>
<path id="SVGID_x5F_36_x5F_" class="st56" d="M583.74,358.09c64.65,16.23,103.9,81.79,87.67,146.44s-81.79,103.9-146.44,87.67
	s-103.9-81.79-87.67-146.44C453.53,381.11,519.09,341.86,583.74,358.09z"/>
<text class="st0"><textPath  xlink:href="#SVGID_x5F_36_x5F_" startOffset="98.3683%"  class="st4">
<tspan  style="font-family:'Bauhaus93'; font-size:24.877px;">Pakistan School Sports Fedration</tspan></textPath>
</text>
<g>
	<g>
		
			<linearGradient id="SVGID_37_" gradientUnits="userSpaceOnUse" x1="445.8907" y1="475.0769" x2="607.3194" y2="475.0769" gradientTransform="matrix(1 0 0 1 46.6444 -176.6416)">
			<stop  offset="0" style="stop-color:#FCCC00"/>
			<stop  offset="0.527" style="stop-color:#FCEC2C"/>
			<stop  offset="0.9963" style="stop-color:#F9B233"/>
		</linearGradient>
		<path class="st57" d="M647.34,296.18c-4.42-3.14-10.86-4.71-19.35-4.71h-37.66c-2.48,0-4.33-0.36-5.54-1.09
			c-0.26-0.16-0.49-0.34-0.7-0.55c-0.74-0.75-1.12-1.82-1.12-3.22c0-0.97,0.18-1.77,0.53-2.42c-0.38-1.74-0.94-3.4-1.69-4.97
			c-1.52-3.17-3.72-5.9-6.62-8.17c-1.23-0.96-2.58-1.83-4.04-2.61c0,0,0,0,0,0c-1.35-0.73-2.8-1.38-4.35-1.95
			c-0.74-0.27-1.5-0.52-2.27-0.76c-4.2-1.28-9-1.92-14.38-1.92h-43.46l-14.17,18.01l59.6,0c2.47,0,4.53,0.39,6.17,1.19
			c0.56,0.26,1.07,0.57,1.54,0.93c1.51,1.17,2.4,2.69,2.66,4.56c0.24,1.77,0.69,3.44,1.35,5c1.03,2.45,2.62,4.54,4.76,6.26
			c2.14,1.72,4.83,3.07,8.07,4.03c0.8,0.24,1.64,0.45,2.52,0.63c2.67,0.55,5.69,0.82,9.07,0.82h37.66c2.55,0,4.41,0.38,5.59,1.14
			c1.17,0.76,1.76,2.03,1.76,3.83c0,1.79-0.59,3.09-1.76,3.88c-1.17,0.79-3.04,1.19-5.59,1.19l-52.35,0l-13.76,17.8h64.46
			c5.24,0,9.74-0.52,13.5-1.55c3.76-1.03,6.84-2.52,9.26-4.45c2.41-1.93,4.17-4.31,5.28-7.14c1.1-2.83,1.66-6,1.66-9.52
			C653.96,304.06,651.75,299.32,647.34,296.18z"/>
		<g>
			
				<linearGradient id="SVGID_38_" gradientUnits="userSpaceOnUse" x1="445.8907" y1="490.7698" x2="529.1638" y2="490.7698" gradientTransform="matrix(1 0 0 1 46.6444 -176.6416)">
				<stop  offset="0" style="stop-color:#FCCC00"/>
				<stop  offset="0.527" style="stop-color:#FCEC2C"/>
				<stop  offset="0.9963" style="stop-color:#F9B233"/>
			</linearGradient>
			<path class="st58" d="M575.15,308.3c0.22-0.16,0.44-0.34,0.65-0.52c-0.11-0.02-0.2-0.05-0.3-0.08c-3.74-1.11-6.92-2.72-9.47-4.77
				c-2.62-2.11-4.6-4.7-5.89-7.7c-0.1,0.08-0.2,0.16-0.3,0.25c-1.83,1.45-4.4,2.17-7.71,2.17l-59.6,0v35.39h21.31v-17.69h36.21
				c5.39,0,10.18-0.62,14.39-1.86C568.65,312.23,572.22,310.51,575.15,308.3z"/>
			
				<linearGradient id="SVGID_39_" gradientUnits="userSpaceOnUse" x1="528.9594" y1="449.6115" x2="605.4559" y2="449.6115" gradientTransform="matrix(1 0 0 1 46.6444 -176.6416)">
				<stop  offset="0" style="stop-color:#FCCC00"/>
				<stop  offset="0.527" style="stop-color:#FCEC2C"/>
				<stop  offset="0.9963" style="stop-color:#F9B233"/>
			</linearGradient>
			<path class="st59" d="M585.51,277.47c0.7,1.47,1.28,3.02,1.7,4.63c0.89-0.16,1.94-0.25,3.12-0.25h48.01l13.76-18h-60.11
				c-5.24,0-9.74,0.51-13.5,1.55c-1.01,0.28-1.97,0.59-2.88,0.92c0.75,0.48,1.46,0.99,2.13,1.51
				C581.11,270.49,583.73,273.73,585.51,277.47z"/>
		</g>
	</g>
	<g>
		
			<linearGradient id="SVGID_40_" gradientUnits="userSpaceOnUse" x1="606.2032" y1="461.7859" x2="663.236" y2="461.7859" gradientTransform="matrix(1 0 0 1 46.6444 -176.6416)">
			<stop  offset="0" style="stop-color:#FCCC00"/>
			<stop  offset="0.527" style="stop-color:#FCEC2C"/>
			<stop  offset="0.9963" style="stop-color:#F9B233"/>
		</linearGradient>
		<path class="st60" d="M709.87,263.81l-43.51,0c-7.55,0-13.69,5.75-13.5,12.77c0.03,0.99-0.26,2.73,3.53,10.87
			c5,10.75,7.61,16.17,13.01,18.16c2.7,0.99,5.39,1.01,7.64,0.7h13.12c8.21,0,14.86-6.19,14.86-13.83h-30.74v-14.17h20.74
			c1.03,0,6.28-0.12,10.51-4.05C710.06,270.04,709.91,264.68,709.87,263.81z"/>
		
			<linearGradient id="SVGID_41_" gradientUnits="userSpaceOnUse" x1="620.2911" y1="502.0148" x2="639.834" y2="502.0148" gradientTransform="matrix(0.7071 -0.7071 0.7071 0.7071 -138.8842 359.6203)">
			<stop  offset="0" style="stop-color:#FCCC00"/>
			<stop  offset="0.527" style="stop-color:#FCEC2C"/>
			<stop  offset="0.9963" style="stop-color:#F9B233"/>
		</linearGradient>
		<polygon class="st61" points="677.49,271.13 663.67,284.95 645.74,267.02 		"/>
	</g>
	
		<linearGradient id="SVGID_42_" gradientUnits="userSpaceOnUse" x1="608.7261" y1="481.8748" x2="625.9311" y2="481.8748" gradientTransform="matrix(1 0 0 1 46.6444 -176.6416)">
		<stop  offset="0" style="stop-color:#FCCC00"/>
		<stop  offset="0.527" style="stop-color:#FCEC2C"/>
		<stop  offset="0.9963" style="stop-color:#F9B233"/>
	</linearGradient>
	<rect x="655.37" y="277.4" class="st62" width="17.2" height="55.66"/>
</g>
<text transform="matrix(1 0 0 1 248.9733 671.9376)" class="st0 st63 st64">Pakistan</text>
</svg>
