<?xml version="1.0" encoding="utf-8"?>
<!-- Generator: Adobe Illustrator 25.3.1, SVG Export Plug-In . SVG Version: 6.00 Build 0)  -->
<svg version="1.1" id="Layer_1" xmlns="http://www.w3.org/2000/svg" xmlns:xlink="http://www.w3.org/1999/xlink" x="0px" y="0px"
	 viewBox="0 0 2585.86 1260.51" style="enable-background:new 0 0 2585.86 1260.51;" xml:space="preserve">
<style type="text/css">
	.st0{display:none;}
	.st1{fill:#0C7D8C;}
	.st2{font-family:'Montserrat-ExtraBold';}
	.st3{font-size:94.1108px;}
	.st4{display:inline;}
	.st5{fill:#1D1E1E;}
	.st6{font-family:'Montserrat-Light';}
	.st7{font-size:29.0142px;}
	.st8{display:inline;fill:#212121;}
	.st9{font-family:'Montserrat-Bold';}
	.st10{font-size:157.1782px;}
	.st11{fill:#212121;}
	.st12{font-size:30.6738px;}
	.st13{fill:#0091EA;}
	.st14{fill:#00C853;}
	.st15{fill:#D50000;}
	.st16{fill:#FFAB00;}
	.st17{fill:url(#SVGID_1_);}
	.st18{fill:url(#SVGID_2_);}
	.st19{fill:url(#SVGID_3_);}
	.st20{fill:url(#SVGID_4_);}
	.st21{fill:url(#SVGID_5_);}
	.st22{fill:url(#SVGID_6_);}
	.st23{fill:url(#SVGID_7_);}
	.st24{fill:url(#SVGID_8_);}
	.st25{filter:url(#Adobe_OpacityMaskFilter);}
	.st26{filter:url(#Adobe_OpacityMaskFilter_1_);}
	.st27{mask:url(#SVGID_9_);fill:url(#SVGID_10_);}
	.st28{fill:url(#SVGID_11_);}
	.st29{fill:url(#SVGID_12_);}
	.st30{filter:url(#Adobe_OpacityMaskFilter_2_);}
	.st31{filter:url(#Adobe_OpacityMaskFilter_3_);}
	.st32{mask:url(#SVGID_13_);fill:url(#SVGID_14_);}
	.st33{fill:url(#SVGID_15_);}
	.st34{font-size:26.257px;}
	.st35{fill:url(#SVGID_16_);}
	.st36{fill:url(#SVGID_17_);}
	.st37{fill:url(#SVGID_18_);}
	.st38{fill:url(#SVGID_19_);}
	.st39{filter:url(#Adobe_OpacityMaskFilter_4_);}
	.st40{filter:url(#Adobe_OpacityMaskFilter_5_);}
	.st41{mask:url(#SVGID_20_);fill:url(#SVGID_21_);}
	.st42{fill:url(#SVGID_22_);}
	.st43{fill:url(#SVGID_23_);}
	.st44{filter:url(#Adobe_OpacityMaskFilter_6_);}
	.st45{filter:url(#Adobe_OpacityMaskFilter_7_);}
	.st46{mask:url(#SVGID_24_);fill:url(#SVGID_25_);}
	.st47{fill:url(#SVGID_26_);}
	.st48{fill:#050505;}
	.st49{fill:url(#SVGID_27_);}
	.st50{fill:url(#SVGID_28_);}
	.st51{fill:url(#SVGID_29_);}
	.st52{fill:url(#SVGID_30_);}
	.st53{fill:url(#SVGID_31_);}
	.st54{fill:url(#SVGID_32_);}
	.st55{fill:url(#SVGID_33_);}
	.st56{fill:url(#SVGID_34_);}
	.st57{fill:url(#SVGID_35_);}
	.st58{fill:none;}
	.st59{fill:url(#SVGID_37_);}
	.st60{fill:url(#SVGID_38_);}
	.st61{fill:url(#SVGID_39_);}
	.st62{fill:url(#SVGID_40_);}
	.st63{display:none;fill:url(#SVGID_41_);}
	.st64{fill:url(#SVGID_42_);}
	.st65{font-family:'MyriadPro-Regular';}
	.st66{font-size:47.6378px;}
	.st67{fill:url(#SVGID_43_);}
	.st68{fill:url(#SVGID_44_);}
	.st69{fill:url(#SVGID_45_);}
	.st70{fill:url(#SVGID_46_);}
	.st71{fill:url(#SVGID_47_);}
	.st72{fill:url(#SVGID_48_);}
	.st73{fill:url(#SVGID_49_);}
	.st74{fill:url(#SVGID_50_);}
	.st75{fill:url(#SVGID_51_);}
	.st76{fill:url(#SVGID_52_);}
	.st77{fill:url(#SVGID_53_);}
	.st78{fill:url(#SVGID_54_);}
	.st79{fill:url(#SVGID_55_);}
	.st80{fill:url(#SVGID_56_);}
	.st81{fill:url(#SVGID_57_);}
	.st82{fill:url(#SVGID_58_);}
	.st83{fill:url(#SVGID_59_);}
	.st84{fill:url(#SVGID_60_);}
	.st85{fill:url(#SVGID_61_);}
	.st86{fill:url(#SVGID_62_);}
	.st87{fill:url(#SVGID_63_);}
	.st88{fill:url(#SVGID_64_);}
	.st89{fill:url(#SVGID_65_);}
	.st90{fill:url(#SVGID_66_);}
	.st91{fill:url(#SVGID_67_);}
	.st92{fill:url(#SVGID_68_);}
	.st93{fill:url(#SVGID_69_);}
	.st94{fill:url(#SVGID_70_);}
	.st95{fill:url(#SVGID_71_);}
</style>
<g class="st0">
	<text transform="matrix(1 0 0 1 421.0073 1177.8365)" class="st1 st2 st3">PSF</text>
	<g class="st4">
		<text transform="matrix(1 0 0 1 233.0386 1228.236)" class="st5 st6 st7">Pakistan School Sports Federation</text>
		<g>
			<g>
				<rect x="227.84" y="1237.22" class="st1" width="499.07" height="2.26"/>
			</g>
			<g>
				<rect x="227.84" y="1198.81" class="st1" width="499.07" height="2.25"/>
			</g>
		</g>
	</g>
</g>
<g id="Logo_x5F_1" class="st0">
	<text transform="matrix(1 0 0 1 471.2826 902.5682)" class="st8 st9 st10">PSF</text>
	<text transform="matrix(1 0 0 1 484.4618 943.0125)" class="st4"><tspan x="0" y="0" class="st11 st6 st12">  Pakistan School</tspan><tspan x="0" y="36.81" class="st11 st6 st12">Sports Federation</tspan></text>
	<g class="st4">
		
			<ellipse transform="matrix(0.7071 -0.7071 0.7071 0.7071 -365.4595 489.4309)" class="st13" cx="408.07" cy="685.86" rx="40.45" ry="40.45"/>
		<path class="st14" d="M198.95,596.5c1.75,2.83,3.34,5.68,5.08,8.44c1.88,2.69,3.53,5.46,5.56,8.01
			c3.82,5.21,7.82,10.22,12.25,14.85c8.73,9.33,18.22,17.79,28.28,25.57c20.15,15.62,42.03,28.69,64.39,42.54
			c22.28,13.9,44.94,28.85,65.25,48.25c10.15,9.66,19.51,20.58,27.59,32.66c8,12.18,14.21,25.6,18.8,39.21
			c4.41,13.71,7.27,27.71,8.82,41.69c1.44,13.98,1.74,27.98,0.98,41.69c-1.48,27.49-6.43,53.93-12.03,79.61
			c-11.28,51.2-23.62,102.13-39.42,152.53c1.49-52.78,6.45-105.02,12.42-157c2.94-25.89,5.94-51.3,6.03-76.15
			c0.06-12.42-0.45-24.64-2.12-36.63c-1.49-12-4.05-23.71-7.73-34.87c-3.64-11.2-8.46-21.71-14.63-31.54
			c-6.12-9.91-13.69-19.11-22.01-27.94c-16.73-17.65-36.89-33.22-57.51-49.13c-20.62-15.89-42-32.54-60.36-52.43
			c-9.13-9.97-17.61-20.69-24.45-32.37c-1.77-2.87-3.34-5.87-4.86-8.88c-1.61-2.94-2.9-6.08-4.25-9.13
			c-1.35-3.06-2.3-6.31-3.44-9.41C200.55,602.93,199.78,599.68,198.95,596.5z"/>
		<path class="st15" d="M437.49,807.86c-6.83-8.98-9.24-21.48-7.94-33.41c1.32-12.11,6.38-23.61,13.05-33.49
			c13.59-19.77,32.61-33.87,51.45-45.18c18.97-11.4,38.02-20.2,55.62-30.66c17.71-10.46,34.2-22.11,48.37-39.31
			c-1.64,11.07-6.41,21.78-12.71,31.35c-6.34,9.58-14.22,18.08-22.69,25.59c-17.08,15.11-36.39,26.16-54.27,36.89
			c-17.93,10.71-34.98,21.42-48.81,35.04c-6.86,6.78-12.74,14.38-16.82,23.15C438.67,786.68,436.41,796.74,437.49,807.86z"/>
		<path class="st16" d="M387.48,849.95c2.44,26.02-0.28,52.31-6.28,77.82c-3,12.77-6.93,25.33-11.65,37.6
			c-1.14,3.09-2.4,6.12-3.7,9.14c-1.27,3.02-2.57,6.04-4.08,9.23c-3.06,6.28-6.92,13.03-12.65,19.23
			c-5.94,6.24-13.59,11.35-23.06,13.59c-4.71,1.05-9.98,1.28-15.03,0.23c-4.99-0.96-9.73-3.01-13.58-5.71
			c-7.76-5.43-12.54-12.2-16.08-18.75c-1.77-3.3-3.27-6.59-4.56-9.88c-1.19-3.21-2.31-6.35-3.35-9.56
			c-8.17-25.59-10.54-52.91-5.25-78.55c6.35,25.3,14.42,48.7,25.52,70.28c1.35,2.69,2.81,5.38,4.26,7.96c1.4,2.48,2.83,4.86,4.36,7
			c3.07,4.26,6.4,7.75,9.39,9.28c1.49,0.76,2.74,1.2,4.03,1.33c1.21,0.18,2.45,0.02,3.92-0.4c2.95-0.76,6.43-2.88,9.17-5.92
			c3.02-3.1,5.73-7.43,8.39-12.5c2.72-5.08,5.43-10.9,8.08-16.38c5.33-11.13,10.32-22.46,15.11-33.94
			C370.12,898.11,378.48,874.45,387.48,849.95z"/>
		<path class="st14" d="M481.07,781.02c0.4-5.38,2.56-10.67,5.73-15.25c3.23-4.57,7.41-8.4,11.87-11.72
			c8.95-6.63,19.24-11.04,28.85-15.5c19.33-8.76,38.15-18.28,55.51-29.53c17.16-11.42,33.11-24.47,44.87-40.45
			c5.88-7.94,10.96-16.43,14.72-25.41c3.76-9,6.3-18.54,7.71-28.27c3.01-19.46,1.34-39.77-3.95-59.08
			c-2.6-9.68-6.13-19.14-10.59-28.17c-4.46-8.99-9.8-17.69-15.81-25.94c-11.99-16.58-27.01-31.11-43.48-44.03
			c-16.49-12.99-34.83-23.77-53.9-33.64c20.76,5.54,40.85,14.07,59.67,25.16c18.69,11.26,36.16,25.23,50.57,42.31
			c14.46,16.92,26,37.05,32.55,58.75c3.35,10.83,5.55,22.04,6.64,33.4c0.93,11.38,0.6,22.91-1.06,34.3
			c-1.76,11.37-4.79,22.63-9.43,33.29c-4.77,10.62-10.87,20.51-18.06,29.45c-7.17,8.95-15.35,16.95-24.22,23.86
			c-8.8,7-18.17,13.07-27.81,18.46c-19.38,10.58-39.71,18.59-60.29,25.02c-10.32,3.12-20.24,6.11-29.44,10.85
			c-4.57,2.36-8.88,5.21-12.52,8.85C485.53,771.36,482.67,775.87,481.07,781.02z"/>
		<path class="st13" d="M558.87,760.24c30.47-11.83,57.1-29.91,78.46-52.55c21.35-22.59,37.42-49.73,45.81-79.03
			c8.38-29.3,9.15-60.83,3.02-91.29c-6.11-30.52-19.1-59.95-38.64-86.16c25.92,20.17,44.78,49.82,54.56,82.13
			c9.8,32.36,10.67,67.95,1.13,101.08c-9.5,33.14-29.1,62.84-54.56,85.09C623.23,741.71,591.54,756.85,558.87,760.24z"/>
		<path class="st16" d="M595.49,678.22c9.1-16.11,15.16-32.74,18.06-49.74c2.91-16.95,2.66-34.14-1.02-50.48
			c-3.7-16.33-10.84-31.96-20.74-46.03c-9.9-14.11-22.5-26.54-37.62-37.21c18.16,4.04,35.02,14.56,48.19,28.53
			c13.18,14.01,22.84,31.72,27.13,50.89c4.32,19.16,3.18,39.3-2.72,57.6C620.86,650.04,610.15,666.76,595.49,678.22z"/>
		<linearGradient id="SVGID_1_" gradientUnits="userSpaceOnUse" x1="369.2097" y1="826.2781" x2="393.5678" y2="943.7192">
			<stop  offset="0" style="stop-color:#00C853"/>
			<stop  offset="1" style="stop-color:#00C853;stop-opacity:0"/>
		</linearGradient>
		<path class="st17" d="M384.5,1131.56c15.79-50.4,28.14-101.33,39.42-152.53c4.25-19.5,8.12-39.46,10.39-59.97
			c-7.01-111.24-97.06-169.95-97.06-169.95s-0.01,0-0.01,0c6.75,5.91,13.22,11.98,19.22,18.32c8.32,8.83,15.9,18.03,22.01,27.94
			c6.17,9.83,10.99,20.34,14.63,31.54c3.69,11.16,6.24,22.87,7.73,34.87c1.67,11.99,2.18,24.21,2.12,36.63
			c-0.09,24.84-3.09,50.25-6.03,76.15C390.94,1026.54,385.98,1078.79,384.5,1131.56z"/>
		<linearGradient id="SVGID_2_" gradientUnits="userSpaceOnUse" x1="320.0967" y1="1000.6655" x2="295.7385" y2="970.2178">
			<stop  offset="0" style="stop-color:#FFAB00"/>
			<stop  offset="1" style="stop-color:#FFAB00;stop-opacity:0"/>
		</linearGradient>
		<path class="st18" d="M333.85,977.34c0,0-0.01-0.03-0.01-0.03c-1.6,2.53-3.24,4.79-5,6.59c-2.73,3.04-6.22,5.17-9.17,5.92
			c-1.47,0.42-2.71,0.58-3.92,0.4c-1.29-0.13-2.54-0.57-4.03-1.33c-2.98-1.53-6.32-5.02-9.39-9.28c-1.54-2.14-2.96-4.52-4.36-7
			c-1.45-2.59-2.91-5.27-4.26-7.96c-11.1-21.58-19.17-44.99-25.52-70.28c-5.29,25.64-2.92,52.96,5.25,78.55
			c1.03,3.21,2.15,6.35,3.35,9.56c1.29,3.29,2.79,6.58,4.56,9.88c0.98,1.81,2.07,3.64,3.28,5.45
			C314.14,1017.42,333.85,977.34,333.85,977.34z"/>
		<linearGradient id="SVGID_3_" gradientUnits="userSpaceOnUse" x1="486.8879" y1="730.0548" x2="446.8709" y2="766.0121">
			<stop  offset="0" style="stop-color:#A80000"/>
			<stop  offset="0.287" style="stop-color:#AD0000;stop-opacity:0.713"/>
			<stop  offset="0.6051" style="stop-color:#BA0000;stop-opacity:0.3949"/>
			<stop  offset="0.9369" style="stop-color:#D00000;stop-opacity:0.0631"/>
			<stop  offset="1" style="stop-color:#D50000;stop-opacity:0"/>
		</linearGradient>
		<path class="st19" d="M494.04,695.78c-18.84,11.32-37.86,25.41-51.45,45.18c-6.67,9.88-11.73,21.38-13.05,33.49
			c-1.3,11.92,1.11,24.43,7.94,33.41c-1.07-11.12,1.18-21.18,5.24-30.02c0.92-1.99,1.97-3.9,3.07-5.77c0,0-0.01-0.02-0.01-0.02
			s9.52-44.54,62.4-84.36C503.47,690.28,498.75,692.95,494.04,695.78z"/>
		<linearGradient id="SVGID_4_" gradientUnits="userSpaceOnUse" x1="418.6698" y1="666.5334" x2="398.9514" y2="702.4907">
			<stop  offset="0.0477" style="stop-color:#0091EA"/>
			<stop  offset="1" style="stop-color:#0091EA;stop-opacity:0"/>
		</linearGradient>
		<path class="st20" d="M372.72,666.21c-3.24,5.82-5.11,12.52-5.11,19.65c0,22.34,18.11,40.45,40.45,40.45
			c16.66,0,30.95-10.07,37.15-24.45C425.01,673.62,388.91,667.51,372.72,666.21z"/>
	</g>
</g>
<g id="Logo_x5F_3" class="st0">
	<g class="st4">
		<g>
			
				<linearGradient id="SVGID_5_" gradientUnits="userSpaceOnUse" x1="169.6785" y1="1094.7217" x2="551.3383" y2="984.9789" gradientTransform="matrix(-0.5963 0.7046 -0.8744 -0.6438 1689.8784 1009.0713)">
				<stop  offset="0" style="stop-color:#ED59F8"/>
				<stop  offset="0.1054" style="stop-color:#D85CF8"/>
				<stop  offset="0.3235" style="stop-color:#A264FA"/>
				<stop  offset="0.6324" style="stop-color:#4B70FB"/>
				<stop  offset="0.878" style="stop-color:#027AFD"/>
			</linearGradient>
			<path class="st21" d="M538.11,705.76c-3.13,15.43-5.44,29.54-9.19,42.14c-4.43-36.25-11.58-71.42-33.07-97.83
				c-0.42-56.75,9.7-143.04,63.61-187.5c64.21-52.95,135.41-5.8,135.41-5.8C594.23,465.21,570.08,548.3,538.11,705.76z"/>
			
				<linearGradient id="SVGID_6_" gradientUnits="userSpaceOnUse" x1="401.7184" y1="1003.0717" x2="537.0164" y2="1074.8625" gradientTransform="matrix(-0.9632 0.2688 -0.2688 -0.9632 1311.0676 1611.3846)">
				<stop  offset="0" style="stop-color:#FF2E64"/>
				<stop  offset="0.5926" style="stop-color:#FFAD00"/>
				<stop  offset="1" style="stop-color:#CBE900"/>
			</linearGradient>
			<path class="st22" d="M494.04,815.06c-6.04-24.27-9.6-48.8-14.38-70.98c4.01-14.46,7.6-31.48,10.56-51.44
				c2.24-15.12,4.07-29.28,5.61-42.56c21.5,26.41,28.64,61.58,33.08,97.81c6.93,57.16,7.05,116.95,45.36,149.02
				c0,0,0.18,0.19,0.64,0.55c1.02,0.81,2.02,1.57,3.04,2.38c1.36,0.96,3.07,2.07,5.23,3.23c18.56,9.32,46.88,1.66,71.44-38.94
				c35.37-58.36,78.09-225.32-23.58-300.21c0,0,95.4-20.53,118.26,88.47c16.86,80.95-11.2,165.53-54.61,223.03
				c-0.18,0.23-0.4,0.54-0.63,0.79c-2.75,3.69-5.65,7.24-8.54,10.67c-57.3,67.77-108.86,44.75-130.35,28.88
				C518.98,889.19,503.42,852.41,494.04,815.06z"/>
			
				<linearGradient id="SVGID_7_" gradientUnits="userSpaceOnUse" x1="753.2763" y1="1046.4309" x2="630.9614" y2="961.2227" gradientTransform="matrix(-0.9632 0.2688 -0.2688 -0.9632 1311.0676 1611.3846)">
				<stop  offset="0" style="stop-color:#35D78E"/>
				<stop  offset="0.5587" style="stop-color:#00F1FD"/>
				<stop  offset="1" style="stop-color:#25A0FD"/>
			</linearGradient>
			<path class="st23" d="M248.82,865.21l-0.08-0.28c-3.38-17.58-3.86-35.9-1.6-49.39c7.79-46.77,26.99-79.9,43.41-102.27
				l30.84,18.62c-64.69,74.46-60.17,176.7-23.93,171.65c1.59-0.2,3-0.84,4.27-1.74c0.5-0.38,0.74-0.63,0.74-0.63
				c16.37-13.83,11.32-82.35,74.25-77.31c41.96,3.46,81.53,29.09,102.89-79.7c4.83,22.11,8.38,46.64,14.42,70.91
				c-31.92,54.35-94.45,45.3-108.79,42.84c-35.94-6.11-41.3,3.06-47.48,30.92c-5.41,24.29-29.44,52.14-63.94,26.74
				C261.12,906.25,252.86,886.26,248.82,865.21z"/>
			
				<linearGradient id="SVGID_8_" gradientUnits="userSpaceOnUse" x1="563.6061" y1="1164.0459" x2="516.5765" y2="1024.6368" gradientTransform="matrix(-0.5963 0.7046 -0.8744 -0.6438 1689.8784 1009.0713)">
				<stop  offset="0.0507" style="stop-color:#35D78E"/>
				<stop  offset="1" style="stop-color:#CBE900"/>
			</linearGradient>
			<path class="st24" d="M290.57,713.25c12.9-17.25,34.62-41.7,59.73-60.38c69.91-51.99,111.43-32.09,126.57-20.94
				c7.35,5.42,13.64,11.5,18.94,18.15c-1.55,13.33-3.4,27.49-5.64,42.57c-2.96,19.97-6.53,36.99-10.56,51.48
				c-6.49-29.43-15.31-54.69-35.71-69.7c-38.79-28.56-105.04,34.54-122.5,57.49L290.57,713.25z"/>
			<defs>
				<filter id="Adobe_OpacityMaskFilter" filterUnits="userSpaceOnUse" x="583.17" y="562.39" width="171.08" height="348.93">
					<feFlood  style="flood-color:white;flood-opacity:1" result="back"/>
					<feBlend  in="SourceGraphic" in2="back" mode="normal"/>
				</filter>
			</defs>
			<mask maskUnits="userSpaceOnUse" x="583.17" y="562.39" width="171.08" height="348.93" id="SVGID_9_">
				<g class="st25">
					<defs>
						<filter id="Adobe_OpacityMaskFilter_1_" filterUnits="userSpaceOnUse" x="583.17" y="562.39" width="171.08" height="348.93">
							<feFlood  style="flood-color:white;flood-opacity:1" result="back"/>
							<feBlend  in="SourceGraphic" in2="back" mode="normal"/>
						</filter>
					</defs>
					<mask maskUnits="userSpaceOnUse" x="583.17" y="562.39" width="171.08" height="348.93" id="SVGID_9_">
						<g class="st26">
						</g>
					</mask>
					
						<linearGradient id="SVGID_10_" gradientUnits="userSpaceOnUse" x1="479.583" y1="864.882" x2="382.2474" y2="1019.5148" gradientTransform="matrix(-0.9632 0.2688 -0.2688 -0.9632 1311.0676 1611.3846)">
						<stop  offset="0.0168" style="stop-color:#FFFFFF"/>
						<stop  offset="1" style="stop-color:#000000"/>
					</linearGradient>
					<path class="st27" d="M634.58,910.05c-25.05,3.88-42.02-1.92-51.41-6.98c18.56,9.32,46.88,1.66,71.44-38.94
						c35.37-58.36,78.09-225.32-23.58-300.21c0,0,95.4-20.53,118.26,88.47c16.86,80.95-11.2,165.53-54.61,223.03
						c-0.18,0.23-0.4,0.54-0.63,0.79C687.38,884.23,667.46,904.96,634.58,910.05z"/>
				</g>
			</mask>
			
				<linearGradient id="SVGID_11_" gradientUnits="userSpaceOnUse" x1="479.583" y1="864.882" x2="382.2474" y2="1019.5148" gradientTransform="matrix(-0.9632 0.2688 -0.2688 -0.9632 1311.0676 1611.3846)">
				<stop  offset="0.0168" style="stop-color:#900034"/>
				<stop  offset="1" style="stop-color:#900034"/>
			</linearGradient>
			<path class="st28" d="M634.58,910.05c-25.05,3.88-42.02-1.92-51.41-6.98c18.56,9.32,46.88,1.66,71.44-38.94
				c35.37-58.36,78.09-225.32-23.58-300.21c0,0,95.4-20.53,118.26,88.47c16.86,80.95-11.2,165.53-54.61,223.03
				c-0.18,0.23-0.4,0.54-0.63,0.79C687.38,884.23,667.46,904.96,634.58,910.05z"/>
			
				<linearGradient id="SVGID_12_" gradientUnits="userSpaceOnUse" x1="515.5412" y1="883.7135" x2="517.2874" y2="884.6401" gradientTransform="matrix(-0.9632 0.2688 -0.2688 -0.9632 1311.0676 1611.3846)">
				<stop  offset="0" style="stop-color:#FF2E64"/>
				<stop  offset="0.5926" style="stop-color:#FFAD00"/>
				<stop  offset="1" style="stop-color:#C1DA00"/>
			</linearGradient>
			<path class="st29" d="M574.9,897.46c1.02,0.81,2.02,1.57,3.04,2.38C576.45,898.86,575.47,897.97,574.9,897.46z"/>
			<defs>
				<filter id="Adobe_OpacityMaskFilter_2_" filterUnits="userSpaceOnUse" x="245.75" y="713.27" width="75.64" height="194.36">
					<feFlood  style="flood-color:white;flood-opacity:1" result="back"/>
					<feBlend  in="SourceGraphic" in2="back" mode="normal"/>
				</filter>
			</defs>
			<mask maskUnits="userSpaceOnUse" x="245.75" y="713.27" width="75.64" height="194.36" id="SVGID_13_">
				<g class="st30">
					<defs>
						<filter id="Adobe_OpacityMaskFilter_3_" filterUnits="userSpaceOnUse" x="245.75" y="713.27" width="75.64" height="194.36">
							<feFlood  style="flood-color:white;flood-opacity:1" result="back"/>
							<feBlend  in="SourceGraphic" in2="back" mode="normal"/>
						</filter>
					</defs>
					<mask maskUnits="userSpaceOnUse" x="245.75" y="713.27" width="75.64" height="194.36" id="SVGID_13_">
						<g class="st31">
						</g>
					</mask>
					
						<linearGradient id="SVGID_14_" gradientUnits="userSpaceOnUse" x1="838.6224" y1="994.2089" x2="792.5427" y2="1025.7916" gradientTransform="matrix(-0.9632 0.2688 -0.2688 -0.9632 1311.0676 1611.3846)">
						<stop  offset="0" style="stop-color:#FFFFFF"/>
						<stop  offset="1" style="stop-color:#000000"/>
					</linearGradient>
					<path class="st32" d="M248.82,865.21l-0.08-0.28c-3.38-17.58-3.86-35.9-1.6-49.39c7.79-46.77,26.99-79.9,43.41-102.27
						l30.84,18.62c-64.69,74.46-60.17,176.7-23.93,171.65c1.59-0.2,3-0.84,4.27-1.74c-3.21,2.48-16.81,11.58-33.77,0.35
						C258.25,895.72,252.3,879.65,248.82,865.21z"/>
				</g>
			</mask>
			
				<linearGradient id="SVGID_15_" gradientUnits="userSpaceOnUse" x1="838.6224" y1="994.2089" x2="792.5427" y2="1025.7916" gradientTransform="matrix(-0.9632 0.2688 -0.2688 -0.9632 1311.0676 1611.3846)">
				<stop  offset="0" style="stop-color:#008E7D"/>
				<stop  offset="1" style="stop-color:#008E7D"/>
			</linearGradient>
			<path class="st33" d="M248.82,865.21l-0.08-0.28c-3.38-17.58-3.86-35.9-1.6-49.39c7.79-46.77,26.99-79.9,43.41-102.27
				l30.84,18.62c-64.69,74.46-60.17,176.7-23.93,171.65c1.59-0.2,3-0.84,4.27-1.74c-3.21,2.48-16.81,11.58-33.77,0.35
				C258.25,895.72,252.3,879.65,248.82,865.21z"/>
		</g>
	</g>
	<g class="st4">
		<g>
			<path d="M572.55,1016.24c-7.33-5.21-18.03-7.81-32.1-7.81h-62.49c-4.12,0-7.18-0.6-9.18-1.8c-0.44-0.26-0.81-0.57-1.16-0.92
				c-1.23-1.24-1.85-3.02-1.85-5.35c0-1.61,0.3-2.94,0.89-4.01c-0.63-2.89-1.57-5.63-2.81-8.24c-2.52-5.26-6.18-9.79-10.99-13.56
				c-2.03-1.6-4.27-3.04-6.7-4.34c0,0,0,0-0.01,0c-2.24-1.21-4.64-2.29-7.22-3.24c-1.22-0.45-2.48-0.87-3.77-1.26
				c-6.97-2.12-14.93-3.19-23.86-3.19H339.2l-23.52,29.88h98.89c4.1,0,7.51,0.65,10.24,1.97c0.94,0.43,1.78,0.95,2.55,1.55
				c2.5,1.94,3.98,4.47,4.41,7.56c0.4,2.94,1.14,5.71,2.23,8.29c1.72,4.06,4.35,7.53,7.9,10.39c3.55,2.86,8.01,5.09,13.39,6.69
				c1.33,0.4,2.73,0.74,4.19,1.04c4.43,0.91,9.44,1.36,15.04,1.36h62.49c4.23,0,7.32,0.63,9.27,1.89c1.94,1.26,2.92,3.38,2.92,6.35
				c0,2.98-0.97,5.12-2.92,6.44c-1.95,1.32-5.04,1.97-9.27,1.97h-86.87l-22.83,29.53h106.96c8.7,0,16.16-0.86,22.4-2.57
				c6.24-1.72,11.36-4.18,15.37-7.38c4.01-3.2,6.92-7.15,8.76-11.85c1.83-4.69,2.75-9.96,2.75-15.8
				C583.54,1029.32,579.87,1021.45,572.55,1016.24z"/>
			<g>
				<path d="M452.77,1036.36c0.37-0.27,0.73-0.56,1.09-0.85c-0.18-0.04-0.34-0.08-0.5-0.14c-6.2-1.84-11.49-4.52-15.71-7.92
					c-4.34-3.5-7.64-7.8-9.78-12.78c-0.16,0.14-0.33,0.27-0.5,0.41c-3.04,2.4-7.3,3.59-12.79,3.59h-98.89v58.72h35.36v-29.35h60.09
					c8.94,0,16.89-1.03,23.87-3.09C441.97,1042.88,447.9,1040.02,452.77,1036.36z"/>
				<path d="M469.95,985.19c1.17,2.44,2.12,5.01,2.82,7.68c1.48-0.27,3.21-0.41,5.18-0.41h79.66l22.83-29.87H480.7
					c-8.69,0-16.17,0.85-22.41,2.58c-1.68,0.46-3.27,0.98-4.77,1.53c1.25,0.8,2.41,1.64,3.53,2.51
					C462.64,973.62,467,979,469.95,985.19z"/>
			</g>
		</g>
		<g>
			<path d="M676.3,962.53h-72.2c-12.52,0-22.72,9.55-22.4,21.19c0.04,1.64-0.42,4.54,5.85,18.04c8.3,17.84,12.63,26.83,21.58,30.13
				c4.47,1.65,8.94,1.67,12.67,1.17h21.77c13.62,0,24.66-10.27,24.66-22.94h-51V986.6h34.41c1.71-0.01,10.42-0.2,17.44-6.72
				C676.63,972.87,676.37,963.97,676.3,962.53z"/>
			<polygon class="st0" points="617.54,1077.45 585.11,1077.45 585.11,1035.39 			"/>
		</g>
		<rect x="585.87" y="985.09" width="28.55" height="92.36"/>
	</g>
	<text transform="matrix(1 0 0 1 276.5273 1112.3043)" class="st4 st6 st34">Pakistan School Sports Federation</text>
</g>
<g id="Logo_x5F_3_1_" class="st0">
	<g class="st4">
		<g>
			
				<linearGradient id="SVGID_16_" gradientUnits="userSpaceOnUse" x1="169.6785" y1="1094.7217" x2="551.3383" y2="984.9789" gradientTransform="matrix(-0.5963 0.7046 -0.8744 -0.6438 1689.8784 1009.0713)">
				<stop  offset="0" style="stop-color:#ED59F8"/>
				<stop  offset="0.1054" style="stop-color:#D85CF8"/>
				<stop  offset="0.3235" style="stop-color:#A264FA"/>
				<stop  offset="0.6324" style="stop-color:#4B70FB"/>
				<stop  offset="0.878" style="stop-color:#027AFD"/>
			</linearGradient>
			<path class="st35" d="M538.11,705.76c-3.13,15.43-5.44,29.54-9.19,42.14c-4.43-36.25-11.58-71.42-33.07-97.83
				c-0.42-56.75,9.7-143.04,63.61-187.5c64.21-52.95,135.41-5.8,135.41-5.8C594.23,465.21,570.08,548.3,538.11,705.76z"/>
			
				<linearGradient id="SVGID_17_" gradientUnits="userSpaceOnUse" x1="401.7184" y1="1003.0717" x2="537.0164" y2="1074.8625" gradientTransform="matrix(-0.9632 0.2688 -0.2688 -0.9632 1311.0676 1611.3846)">
				<stop  offset="0" style="stop-color:#FF2E64"/>
				<stop  offset="0.5926" style="stop-color:#FFAD00"/>
				<stop  offset="1" style="stop-color:#CBE900"/>
			</linearGradient>
			<path class="st36" d="M494.04,815.06c-6.04-24.27-9.6-48.8-14.38-70.98c4.01-14.46,7.6-31.48,10.56-51.44
				c2.24-15.12,4.07-29.28,5.61-42.56c21.5,26.41,28.64,61.58,33.08,97.81c6.93,57.16,7.05,116.95,45.36,149.02
				c0,0,0.18,0.19,0.64,0.55c1.02,0.81,2.02,1.57,3.04,2.38c1.36,0.96,3.07,2.07,5.23,3.23c18.56,9.32,46.88,1.66,71.44-38.94
				c35.37-58.36,78.09-225.32-23.58-300.21c0,0,95.4-20.53,118.26,88.47c16.86,80.95-11.2,165.53-54.61,223.03
				c-0.18,0.23-0.4,0.54-0.63,0.79c-2.75,3.69-5.65,7.24-8.54,10.67c-57.3,67.77-108.86,44.75-130.35,28.88
				C518.98,889.19,503.42,852.41,494.04,815.06z"/>
			
				<linearGradient id="SVGID_18_" gradientUnits="userSpaceOnUse" x1="753.2763" y1="1046.4309" x2="630.9614" y2="961.2227" gradientTransform="matrix(-0.9632 0.2688 -0.2688 -0.9632 1311.0676 1611.3846)">
				<stop  offset="0" style="stop-color:#35D78E"/>
				<stop  offset="0.5587" style="stop-color:#00F1FD"/>
				<stop  offset="1" style="stop-color:#25A0FD"/>
			</linearGradient>
			<path class="st37" d="M248.82,865.21l-0.08-0.28c-3.38-17.58-3.86-35.9-1.6-49.39c7.79-46.77,26.99-79.9,43.41-102.27
				l30.84,18.62c-64.69,74.46-60.17,176.7-23.93,171.65c1.59-0.2,3-0.84,4.27-1.74c0.5-0.38,0.74-0.63,0.74-0.63
				c16.37-13.83,11.32-82.35,74.25-77.31c41.96,3.46,81.53,29.09,102.89-79.7c4.83,22.11,8.38,46.64,14.42,70.91
				c-31.92,54.35-94.45,45.3-108.79,42.84c-35.94-6.11-41.3,3.06-47.48,30.92c-5.41,24.29-29.44,52.14-63.94,26.74
				C261.12,906.25,252.86,886.26,248.82,865.21z"/>
			
				<linearGradient id="SVGID_19_" gradientUnits="userSpaceOnUse" x1="563.6061" y1="1164.0459" x2="516.5765" y2="1024.6368" gradientTransform="matrix(-0.5963 0.7046 -0.8744 -0.6438 1689.8784 1009.0713)">
				<stop  offset="0.0507" style="stop-color:#35D78E"/>
				<stop  offset="1" style="stop-color:#CBE900"/>
			</linearGradient>
			<path class="st38" d="M290.57,713.25c12.9-17.25,34.62-41.7,59.73-60.38c69.91-51.99,111.43-32.09,126.57-20.94
				c7.35,5.42,13.64,11.5,18.94,18.15c-1.55,13.33-3.4,27.49-5.64,42.57c-2.96,19.97-6.53,36.99-10.56,51.48
				c-6.49-29.43-15.31-54.69-35.71-69.7c-38.79-28.56-105.04,34.54-122.5,57.49L290.57,713.25z"/>
			<defs>
				<filter id="Adobe_OpacityMaskFilter_4_" filterUnits="userSpaceOnUse" x="583.17" y="562.39" width="171.08" height="348.93">
					<feFlood  style="flood-color:white;flood-opacity:1" result="back"/>
					<feBlend  in="SourceGraphic" in2="back" mode="normal"/>
				</filter>
			</defs>
			<mask maskUnits="userSpaceOnUse" x="583.17" y="562.39" width="171.08" height="348.93" id="SVGID_20_">
				<g class="st39">
					<defs>
						<filter id="Adobe_OpacityMaskFilter_5_" filterUnits="userSpaceOnUse" x="583.17" y="562.39" width="171.08" height="348.93">
							<feFlood  style="flood-color:white;flood-opacity:1" result="back"/>
							<feBlend  in="SourceGraphic" in2="back" mode="normal"/>
						</filter>
					</defs>
					<mask maskUnits="userSpaceOnUse" x="583.17" y="562.39" width="171.08" height="348.93" id="SVGID_20_">
						<g class="st40">
						</g>
					</mask>
					
						<linearGradient id="SVGID_21_" gradientUnits="userSpaceOnUse" x1="479.583" y1="864.882" x2="382.2474" y2="1019.5148" gradientTransform="matrix(-0.9632 0.2688 -0.2688 -0.9632 1311.0676 1611.3846)">
						<stop  offset="0.0168" style="stop-color:#FFFFFF"/>
						<stop  offset="1" style="stop-color:#000000"/>
					</linearGradient>
					<path class="st41" d="M634.58,910.05c-25.05,3.88-42.02-1.92-51.41-6.98c18.56,9.32,46.88,1.66,71.44-38.94
						c35.37-58.36,78.09-225.32-23.58-300.21c0,0,95.4-20.53,118.26,88.47c16.86,80.95-11.2,165.53-54.61,223.03
						c-0.18,0.23-0.4,0.54-0.63,0.79C687.38,884.23,667.46,904.96,634.58,910.05z"/>
				</g>
			</mask>
			
				<linearGradient id="SVGID_22_" gradientUnits="userSpaceOnUse" x1="479.583" y1="864.882" x2="382.2474" y2="1019.5148" gradientTransform="matrix(-0.9632 0.2688 -0.2688 -0.9632 1311.0676 1611.3846)">
				<stop  offset="0.0168" style="stop-color:#900034"/>
				<stop  offset="1" style="stop-color:#900034"/>
			</linearGradient>
			<path class="st42" d="M634.58,910.05c-25.05,3.88-42.02-1.92-51.41-6.98c18.56,9.32,46.88,1.66,71.44-38.94
				c35.37-58.36,78.09-225.32-23.58-300.21c0,0,95.4-20.53,118.26,88.47c16.86,80.95-11.2,165.53-54.61,223.03
				c-0.18,0.23-0.4,0.54-0.63,0.79C687.38,884.23,667.46,904.96,634.58,910.05z"/>
			
				<linearGradient id="SVGID_23_" gradientUnits="userSpaceOnUse" x1="515.5412" y1="883.7135" x2="517.2874" y2="884.6401" gradientTransform="matrix(-0.9632 0.2688 -0.2688 -0.9632 1311.0676 1611.3846)">
				<stop  offset="0" style="stop-color:#FF2E64"/>
				<stop  offset="0.5926" style="stop-color:#FFAD00"/>
				<stop  offset="1" style="stop-color:#C1DA00"/>
			</linearGradient>
			<path class="st43" d="M574.9,897.46c1.02,0.81,2.02,1.57,3.04,2.38C576.45,898.86,575.47,897.97,574.9,897.46z"/>
			<defs>
				<filter id="Adobe_OpacityMaskFilter_6_" filterUnits="userSpaceOnUse" x="245.75" y="713.27" width="75.64" height="194.36">
					<feFlood  style="flood-color:white;flood-opacity:1" result="back"/>
					<feBlend  in="SourceGraphic" in2="back" mode="normal"/>
				</filter>
			</defs>
			<mask maskUnits="userSpaceOnUse" x="245.75" y="713.27" width="75.64" height="194.36" id="SVGID_24_">
				<g class="st44">
					<defs>
						<filter id="Adobe_OpacityMaskFilter_7_" filterUnits="userSpaceOnUse" x="245.75" y="713.27" width="75.64" height="194.36">
							<feFlood  style="flood-color:white;flood-opacity:1" result="back"/>
							<feBlend  in="SourceGraphic" in2="back" mode="normal"/>
						</filter>
					</defs>
					<mask maskUnits="userSpaceOnUse" x="245.75" y="713.27" width="75.64" height="194.36" id="SVGID_24_">
						<g class="st45">
						</g>
					</mask>
					
						<linearGradient id="SVGID_25_" gradientUnits="userSpaceOnUse" x1="838.6224" y1="994.2089" x2="792.5427" y2="1025.7916" gradientTransform="matrix(-0.9632 0.2688 -0.2688 -0.9632 1311.0676 1611.3846)">
						<stop  offset="0" style="stop-color:#FFFFFF"/>
						<stop  offset="1" style="stop-color:#000000"/>
					</linearGradient>
					<path class="st46" d="M248.82,865.21l-0.08-0.28c-3.38-17.58-3.86-35.9-1.6-49.39c7.79-46.77,26.99-79.9,43.41-102.27
						l30.84,18.62c-64.69,74.46-60.17,176.7-23.93,171.65c1.59-0.2,3-0.84,4.27-1.74c-3.21,2.48-16.81,11.58-33.77,0.35
						C258.25,895.72,252.3,879.65,248.82,865.21z"/>
				</g>
			</mask>
			
				<linearGradient id="SVGID_26_" gradientUnits="userSpaceOnUse" x1="838.6224" y1="994.2089" x2="792.5427" y2="1025.7916" gradientTransform="matrix(-0.9632 0.2688 -0.2688 -0.9632 1311.0676 1611.3846)">
				<stop  offset="0" style="stop-color:#008E7D"/>
				<stop  offset="1" style="stop-color:#008E7D"/>
			</linearGradient>
			<path class="st47" d="M248.82,865.21l-0.08-0.28c-3.38-17.58-3.86-35.9-1.6-49.39c7.79-46.77,26.99-79.9,43.41-102.27
				l30.84,18.62c-64.69,74.46-60.17,176.7-23.93,171.65c1.59-0.2,3-0.84,4.27-1.74c-3.21,2.48-16.81,11.58-33.77,0.35
				C258.25,895.72,252.3,879.65,248.82,865.21z"/>
		</g>
	</g>
	<g class="st4">
		<g>
			<path d="M572.55,1016.24c-7.33-5.21-18.03-7.81-32.1-7.81h-62.49c-4.12,0-7.18-0.6-9.18-1.8c-0.44-0.26-0.81-0.57-1.16-0.92
				c-1.23-1.24-1.85-3.02-1.85-5.35c0-1.61,0.3-2.94,0.89-4.01c-0.63-2.89-1.57-5.63-2.81-8.24c-2.52-5.26-6.18-9.79-10.99-13.56
				c-2.03-1.6-4.27-3.04-6.7-4.34c0,0,0,0-0.01,0c-2.24-1.21-4.64-2.29-7.22-3.24c-1.22-0.45-2.48-0.87-3.77-1.26
				c-6.97-2.12-14.93-3.19-23.86-3.19H339.2l-23.52,29.88h98.89c4.1,0,7.51,0.65,10.24,1.97c0.94,0.43,1.78,0.95,2.55,1.55
				c2.5,1.94,3.98,4.47,4.41,7.56c0.4,2.94,1.14,5.71,2.23,8.29c1.72,4.06,4.35,7.53,7.9,10.39c3.55,2.86,8.01,5.09,13.39,6.69
				c1.33,0.4,2.73,0.74,4.19,1.04c4.43,0.91,9.44,1.36,15.04,1.36h62.49c4.23,0,7.32,0.63,9.27,1.89c1.94,1.26,2.92,3.38,2.92,6.35
				c0,2.98-0.97,5.12-2.92,6.44c-1.95,1.32-5.04,1.97-9.27,1.97h-86.87l-22.83,29.53h106.96c8.7,0,16.16-0.86,22.4-2.57
				c6.24-1.72,11.36-4.18,15.37-7.38c4.01-3.2,6.92-7.15,8.76-11.85c1.83-4.69,2.75-9.96,2.75-15.8
				C583.54,1029.32,579.87,1021.45,572.55,1016.24z"/>
			<g>
				<path d="M452.77,1036.36c0.37-0.27,0.73-0.56,1.09-0.85c-0.18-0.04-0.34-0.08-0.5-0.14c-6.2-1.84-11.49-4.52-15.71-7.92
					c-4.34-3.5-7.64-7.8-9.78-12.78c-0.16,0.14-0.33,0.27-0.5,0.41c-3.04,2.4-7.3,3.59-12.79,3.59h-98.89v58.72h35.36v-29.35h60.09
					c8.94,0,16.89-1.03,23.87-3.09C441.97,1042.88,447.9,1040.02,452.77,1036.36z"/>
				<path d="M469.95,985.19c1.17,2.44,2.12,5.01,2.82,7.68c1.48-0.27,3.21-0.41,5.18-0.41h79.66l22.83-29.87H480.7
					c-8.69,0-16.17,0.85-22.41,2.58c-1.68,0.46-3.27,0.98-4.77,1.53c1.25,0.8,2.41,1.64,3.53,2.51
					C462.64,973.62,467,979,469.95,985.19z"/>
			</g>
		</g>
		<g>
			<path d="M676.3,962.53h-72.2c-12.52,0-22.72,9.55-22.4,21.19c0.04,1.64-0.42,4.54,5.85,18.04c8.3,17.84,12.63,26.83,21.58,30.13
				c4.47,1.65,8.94,1.67,12.67,1.17h21.77c13.62,0,24.66-10.27,24.66-22.94h-51V986.6h34.41c1.71-0.01,10.42-0.2,17.44-6.72
				C676.63,972.87,676.37,963.97,676.3,962.53z"/>
			<polygon class="st0" points="617.54,1077.45 585.11,1077.45 585.11,1035.39 			"/>
		</g>
		<rect x="585.87" y="985.09" width="28.55" height="92.36"/>
	</g>
	<text transform="matrix(1 0 0 1 276.5273 1112.3043)" class="st4 st6 st34">Pakistan School Sports Federation</text>
</g>
<g class="st0">
	<g class="st4">
		<rect x="234.9" y="1049.03" class="st48" width="451.65" height="2.04"/>
	</g>
	<g class="st4">
		<rect x="234.9" y="1014.28" class="st48" width="451.65" height="2.04"/>
	</g>
</g>
<g id="lOGO_x5F_2">
	<g>
		
			<linearGradient id="SVGID_27_" gradientUnits="userSpaceOnUse" x1="136.616" y1="1046.2871" x2="451.6981" y2="731.3843" gradientTransform="matrix(0.9982 -0.0603 0.0603 0.9982 93.3852 -33.048)">
			<stop  offset="0" style="stop-color:#FCCC00"/>
			<stop  offset="0.148" style="stop-color:#FCEB2B"/>
			<stop  offset="1" style="stop-color:#006633"/>
		</linearGradient>
		<path class="st49" d="M554.19,771.12l-8.4-139.11C403.24,643.38,295.44,766.84,304.11,910.2c4.33,71.64,36.95,134.84,86.31,179.42
			c-4.93-17.66-24.85-47.41-29.24-98.3C349.77,859.14,442.87,787.38,554.19,771.12z"/>
		
			<linearGradient id="SVGID_28_" gradientUnits="userSpaceOnUse" x1="159.3172" y1="1085.5984" x2="327.6536" y2="864.5701" gradientTransform="matrix(0.9982 -0.0603 0.0603 0.9982 93.3852 -33.048)">
			<stop  offset="0" style="stop-color:#FCCC00"/>
			<stop  offset="0.148" style="stop-color:#FCEB2B"/>
			<stop  offset="1" style="stop-color:#006633"/>
		</linearGradient>
		<path class="st50" d="M554.19,771.12l24.91-65.72c-142.54,11.36-245.48,85.25-246.68,229.15c-0.51,60.98,27.32,121.56,58,155.07
			c-4.93-17.66-24.85-47.41-29.24-98.3C349.77,859.14,442.87,787.38,554.19,771.12z"/>
		
			<linearGradient id="SVGID_29_" gradientUnits="userSpaceOnUse" x1="413.1883" y1="622.7904" x2="491.4382" y2="315.0143" gradientTransform="matrix(0.7071 -0.7071 0.7071 0.7071 -342.3967 443.9179)">
			<stop  offset="0" style="stop-color:#FCCC00"/>
			<stop  offset="0.148" style="stop-color:#FCEB2B"/>
			<stop  offset="1" style="stop-color:#006633"/>
		</linearGradient>
		<path class="st51" d="M445.24,420.05c-5.61,7.9-18.11,0.23-24.07,8.28c-56.54,76.33-170.35,117.04-238.81,48.59
			c-19.99-19.99-40.68-54.55-46.44-103.09c-11.44,60,6.05,124.43,52.49,170.87c74.53,74.53,195.37,74.53,269.9,0
			c19.9-19.9,34.44-43.11,43.71-67.85L445.24,420.05z"/>
		
			<linearGradient id="SVGID_30_" gradientUnits="userSpaceOnUse" x1="305.1501" y1="366.7289" x2="566.9747" y2="627.2106" gradientTransform="matrix(0.7071 -0.7071 0.7071 0.7071 -342.3967 443.9179)">
			<stop  offset="0" style="stop-color:#FCCC00"/>
			<stop  offset="0.148" style="stop-color:#FCEB2B"/>
			<stop  offset="1" style="stop-color:#006633"/>
		</linearGradient>
		<path class="st52" d="M445.24,420.05c-5.61,7.9,24.95,40.39,18.99,48.44C407.69,544.83,273,593.86,186.11,503.18
			c-19.56-20.41-53.27-82.64-50.19-129.36c-11.44,60,6.05,124.43,52.49,170.87c74.53,74.53,195.37,74.53,269.9,0
			c19.9-19.9,34.44-43.11,43.71-67.85L445.24,420.05z"/>
		
			<linearGradient id="SVGID_31_" gradientUnits="userSpaceOnUse" x1="466.8456" y1="999.9712" x2="714.1748" y2="561.3118" gradientTransform="matrix(0.7071 -0.7071 0.7071 0.7071 -342.3967 443.9179)">
			<stop  offset="0" style="stop-color:#008D36"/>
			<stop  offset="0.1466" style="stop-color:#038F36"/>
			<stop  offset="0.2708" style="stop-color:#0E9436"/>
			<stop  offset="0.3867" style="stop-color:#1F9C36"/>
			<stop  offset="0.4971" style="stop-color:#38A837"/>
			<stop  offset="0.5382" style="stop-color:#43AD37"/>
			<stop  offset="1" style="stop-color:#FCEC2C"/>
		</linearGradient>
		<path class="st53" d="M754.78,688.73c-87.73,29.35-182.65-17.96-212.01-105.69c-29.36-87.73,17.96-182.65,105.69-212.01
			c60.29-20.18,123.98-4.13,167.45,36.35c-60.99-78.41-166.97-113.79-266.52-80.47c-126.11,42.2-194.13,178.65-151.93,304.77
			c42.2,126.11,178.65,194.14,304.77,151.93c99.55-33.31,162.88-125.35,164.4-224.67C856.28,617.41,815.07,668.55,754.78,688.73z"/>
		<g>
			
				<linearGradient id="SVGID_32_" gradientUnits="userSpaceOnUse" x1="689.3976" y1="1018.3715" x2="483.4239" y2="807.2712" gradientTransform="matrix(0.7071 -0.7071 0.7071 0.7071 -342.3967 443.9179)">
				<stop  offset="0" style="stop-color:#008D36"/>
				<stop  offset="0.1466" style="stop-color:#038F36"/>
				<stop  offset="0.2708" style="stop-color:#0E9436"/>
				<stop  offset="0.3867" style="stop-color:#1F9C36"/>
				<stop  offset="0.4971" style="stop-color:#38A837"/>
				<stop  offset="0.5382" style="stop-color:#43AD37"/>
				<stop  offset="1" style="stop-color:#FCEC2C"/>
			</linearGradient>
			<path class="st54" d="M754.78,688.73c-68.51,22.92-141.4-0.91-184.04-54.24c-0.44,18.87,2.31,38.12,8.64,57.06
				c15.62,46.67,49.8,81.9,91.58,100.24c10.45-2.01,20.89-4.72,31.26-8.19c99.55-33.31,162.88-125.35,164.4-224.67
				C856.28,617.41,815.07,668.55,754.78,688.73z"/>
			
				<linearGradient id="SVGID_33_" gradientUnits="userSpaceOnUse" x1="370.5081" y1="654.6302" x2="846.6984" y2="654.6302" gradientTransform="matrix(0.7071 -0.7071 0.7071 0.7071 -342.3967 443.9179)">
				<stop  offset="0" style="stop-color:#008D36"/>
				<stop  offset="0.2173" style="stop-color:#038F36"/>
				<stop  offset="0.4013" style="stop-color:#0E9436"/>
				<stop  offset="0.5731" style="stop-color:#1F9C36"/>
				<stop  offset="0.7367" style="stop-color:#38A837"/>
				<stop  offset="0.7976" style="stop-color:#43AD37"/>
			</linearGradient>
			<path class="st55" d="M645.54,366.01c74.5-17.01,123.55-0.32,166.29,36.32c-61.56-74.85-165.06-108.03-262.45-75.44
				c-126.11,42.2-194.13,178.65-151.93,304.77c6.51,19.45,15.26,37.51,25.87,54.01C413.51,561.54,489.5,401.65,645.54,366.01z"/>
		</g>
		<g>
			
				<linearGradient id="SVGID_34_" gradientUnits="userSpaceOnUse" x1="431.8659" y1="564.3406" x2="588.3882" y2="564.3406" gradientTransform="matrix(-0.7071 -0.7071 0.7071 -0.7071 350.2953 1085.0509)">
				<stop  offset="0" style="stop-color:#008D36"/>
				<stop  offset="0.1466" style="stop-color:#038F36"/>
				<stop  offset="0.2708" style="stop-color:#0E9436"/>
				<stop  offset="0.3867" style="stop-color:#1F9C36"/>
				<stop  offset="0.4971" style="stop-color:#38A837"/>
				<stop  offset="0.5382" style="stop-color:#43AD37"/>
				<stop  offset="1" style="stop-color:#FCEC2C"/>
			</linearGradient>
			<path class="st56" d="M333.29,269.95c30.56-30.56,80.11-30.57,110.68,0c30.56,30.56,30.56,80.12,0,110.68
				c-30.56,30.56-80.12,30.57-110.68,0C302.72,350.06,302.73,300.51,333.29,269.95z"/>
			
				<linearGradient id="SVGID_35_" gradientUnits="userSpaceOnUse" x1="570.2517" y1="337.4058" x2="685.5223" y2="495.1444" gradientTransform="matrix(0.7071 -0.7071 0.7071 0.7071 -342.3967 443.9179)">
				<stop  offset="0" style="stop-color:#008D36"/>
				<stop  offset="0.1466" style="stop-color:#038F36"/>
				<stop  offset="0.2708" style="stop-color:#0E9436"/>
				<stop  offset="0.3867" style="stop-color:#1F9C36"/>
				<stop  offset="0.4971" style="stop-color:#38A837"/>
				<stop  offset="0.5382" style="stop-color:#43AD37"/>
				<stop  offset="1" style="stop-color:#FCEC2C"/>
			</linearGradient>
			<path class="st57" d="M333.29,269.95c-1.67,1.67-3.23,3.41-4.72,5.19c2.36,16.07,9.72,31.55,22.08,43.92
				c30.56,30.56,80.12,30.56,110.68,0c1.67-1.67,3.23-3.41,4.72-5.19c-2.36-16.07-9.72-31.55-22.09-43.91
				C413.41,239.39,363.85,239.38,333.29,269.95z"/>
		</g>
	</g>
</g>
<path id="SVGID_x5F_36_x5F_" class="st58" d="M583.74,645.9c64.65,16.23,103.9,81.79,87.67,146.44s-81.79,103.9-146.44,87.67
	s-103.9-81.79-87.67-146.44C453.53,668.92,519.09,629.67,583.74,645.9z"/>
<text class="st0"><textPath  xlink:href="#SVGID_x5F_36_x5F_" startOffset="98.3683%"  class="st4">
<tspan  style="font-family:'Bauhaus93'; font-size:24.877px;">Pakistan School Sports Fedration</tspan></textPath>
</text>
<g>
	<g>
		
			<linearGradient id="SVGID_37_" gradientUnits="userSpaceOnUse" x1="536.6232" y1="696.1296" x2="725.9852" y2="696.1296" gradientTransform="matrix(1 0 0 1 46.6444 -176.6416)">
			<stop  offset="0" style="stop-color:#FCCC00"/>
			<stop  offset="0.527" style="stop-color:#FCEC2C"/>
			<stop  offset="0.9963" style="stop-color:#F9B233"/>
		</linearGradient>
		<path class="st59" d="M764.86,516.84c-5.18-3.68-12.74-5.52-22.7-5.52h-44.18c-2.91,0-5.08-0.43-6.49-1.27
			c-0.31-0.18-0.58-0.4-0.82-0.65c-0.87-0.88-1.31-2.13-1.31-3.78c0-1.14,0.21-2.08,0.63-2.83c-0.45-2.04-1.11-3.98-1.99-5.83
			c-1.78-3.72-4.37-6.92-7.77-9.59c-1.44-1.13-3.02-2.15-4.73-3.07c0,0,0,0-0.01,0c-1.58-0.85-3.28-1.62-5.1-2.29
			c-0.86-0.32-1.75-0.61-2.67-0.89c-4.93-1.5-10.56-2.25-16.87-2.25h-50.97l-16.63,21.12l69.91,0c2.9,0,5.31,0.46,7.24,1.39
			c0.66,0.31,1.26,0.67,1.8,1.09c1.77,1.37,2.81,3.16,3.12,5.35c0.28,2.08,0.8,4.03,1.58,5.86c1.21,2.87,3.07,5.32,5.58,7.34
			c2.51,2.02,5.66,3.6,9.47,4.73c0.94,0.28,1.93,0.53,2.96,0.74c3.13,0.64,6.68,0.96,10.63,0.96h44.18c2.99,0,5.18,0.45,6.55,1.34
			c1.37,0.89,2.06,2.39,2.06,4.49c0,2.11-0.69,3.62-2.06,4.55c-1.38,0.93-3.56,1.4-6.55,1.4h-61.41l-16.14,20.88h75.61
			c6.15,0,11.43-0.61,15.84-1.82c4.41-1.21,8.03-2.95,10.86-5.22c2.83-2.26,4.89-5.06,6.19-8.37c1.29-3.32,1.94-7.04,1.94-11.17
			C772.63,526.09,770.04,520.52,764.86,516.84z"/>
		<g>
			
				<linearGradient id="SVGID_38_" gradientUnits="userSpaceOnUse" x1="536.6232" y1="714.538" x2="634.3057" y2="714.538" gradientTransform="matrix(1 0 0 1 46.6444 -176.6416)">
				<stop  offset="0" style="stop-color:#FCCC00"/>
				<stop  offset="0.527" style="stop-color:#FCEC2C"/>
				<stop  offset="0.9963" style="stop-color:#F9B233"/>
			</linearGradient>
			<path class="st60" d="M680.18,531.06c0.26-0.19,0.52-0.39,0.77-0.6c-0.12-0.03-0.24-0.06-0.35-0.1c-4.38-1.3-8.12-3.19-11.1-5.6
				c-3.07-2.47-5.4-5.51-6.91-9.03c-0.12,0.1-0.23,0.19-0.35,0.29c-2.15,1.7-5.16,2.54-9.04,2.54l-69.91,0v41.51l25,0v-20.75h42.48
				c6.32,0,11.94-0.73,16.88-2.19C672.55,535.67,676.74,533.65,680.18,531.06z"/>
			
				<linearGradient id="SVGID_39_" gradientUnits="userSpaceOnUse" x1="634.066" y1="666.2578" x2="723.7993" y2="666.2578" gradientTransform="matrix(1 0 0 1 46.6444 -176.6416)">
				<stop  offset="0" style="stop-color:#FCCC00"/>
				<stop  offset="0.527" style="stop-color:#FCEC2C"/>
				<stop  offset="0.9963" style="stop-color:#F9B233"/>
			</linearGradient>
			<path class="st61" d="M692.33,494.89c0.82,1.73,1.5,3.54,1.99,5.43c1.05-0.19,2.27-0.29,3.66-0.29h56.32l16.14-21.11h-70.52
				c-6.15,0-11.43,0.6-15.84,1.82c-1.19,0.33-2.31,0.69-3.38,1.08c0.88,0.57,1.71,1.16,2.49,1.77
				C687.16,486.71,690.24,490.51,692.33,494.89z"/>
		</g>
	</g>
	<g>
		
			<linearGradient id="SVGID_40_" gradientUnits="userSpaceOnUse" x1="724.6759" y1="680.5388" x2="791.5776" y2="680.5388" gradientTransform="matrix(1 0 0 1 46.6444 -176.6416)">
			<stop  offset="0" style="stop-color:#FCCC00"/>
			<stop  offset="0.527" style="stop-color:#FCEC2C"/>
			<stop  offset="0.9963" style="stop-color:#F9B233"/>
		</linearGradient>
		<path class="st62" d="M838.21,478.87h-51.04c-8.85,0-16.06,6.75-15.84,14.98c0.03,1.16-0.3,3.21,4.14,12.75
			c5.86,12.61,8.93,18.97,15.26,21.3c3.16,1.16,6.32,1.18,8.96,0.83h15.39c9.63,0,17.44-7.26,17.44-16.22h-36.06v-16.62h24.32
			c1.21,0,7.37-0.14,12.33-4.75C838.44,486.18,838.26,479.89,838.21,478.87z"/>
		
			<linearGradient id="SVGID_41_" gradientUnits="userSpaceOnUse" x1="754.2427" y1="823.8738" x2="777.1673" y2="823.8738" gradientTransform="matrix(0.7071 -0.7071 0.7071 0.7071 -342.3967 443.9179)">
			<stop  offset="0" style="stop-color:#FCCC00"/>
			<stop  offset="0.527" style="stop-color:#FCEC2C"/>
			<stop  offset="0.9963" style="stop-color:#F9B233"/>
		</linearGradient>
		<polygon class="st63" points="800.22,487.46 784.01,503.67 762.99,482.64 		"/>
	</g>
	
		<linearGradient id="SVGID_42_" gradientUnits="userSpaceOnUse" x1="727.6354" y1="704.1038" x2="747.8174" y2="704.1038" gradientTransform="matrix(1 0 0 1 46.6444 -176.6416)">
		<stop  offset="0" style="stop-color:#FCCC00"/>
		<stop  offset="0.527" style="stop-color:#FCEC2C"/>
		<stop  offset="0.9963" style="stop-color:#F9B233"/>
	</linearGradient>
	<rect x="774.28" y="494.82" class="st64" width="20.18" height="65.29"/>
</g>
<text transform="matrix(1 0 0 1 248.9733 959.7478)" class="st0 st65 st66">Pakistan</text>
<g>
	<linearGradient id="SVGID_43_" gradientUnits="userSpaceOnUse" x1="982.2246" y1="385.0982" x2="1095.7471" y2="385.0982">
		<stop  offset="0" style="stop-color:#FCCC00"/>
		<stop  offset="0.527" style="stop-color:#FCEC2C"/>
		<stop  offset="0.9963" style="stop-color:#F9B233"/>
	</linearGradient>
	<path class="st67" d="M982.22,484.1V286.1h50.16c16.32,0,39.84,1.58,51.6,16.37c9.84,12.14,11.76,26.93,11.76,43.03
		c0,21.38-4.56,45.41-23.76,55.18c-14.64,7.92-31.68,5.54-47.52,6.34v77.09H982.22z M1024.46,371.37
		c7.92-0.26,17.04,0.79,23.76-5.02c4.32-5.28,5.28-13.2,5.28-20.06c0-7.66-0.72-19.27-7.92-22.97c-4.08-1.58-9.84-1.58-16.56-1.58
		h-4.56V371.37z"/>
	<linearGradient id="SVGID_44_" gradientUnits="userSpaceOnUse" x1="1156.2266" y1="385.0982" x2="1285.5898" y2="385.0982">
		<stop  offset="0" style="stop-color:#FCCC00"/>
		<stop  offset="0.527" style="stop-color:#FCEC2C"/>
		<stop  offset="0.9963" style="stop-color:#F9B233"/>
	</linearGradient>
	<path class="st68" d="M1156.23,484.1l39.36-198.01h50.88l39.12,198.01h-42.72l-6-38.54h-33.12l-5.04,38.54H1156.23z M1221.03,322
		h-0.48l-12.24,88.71h24.48L1221.03,322z"/>
	<linearGradient id="SVGID_45_" gradientUnits="userSpaceOnUse" x1="1358.0674" y1="385.0982" x2="1477.5898" y2="385.0982">
		<stop  offset="0" style="stop-color:#FCCC00"/>
		<stop  offset="0.527" style="stop-color:#FCEC2C"/>
		<stop  offset="0.9963" style="stop-color:#F9B233"/>
	</linearGradient>
	<path class="st69" d="M1358.07,484.1V286.1h42.24v79.2h0.48l31.2-79.2h43.2l-38.4,87.39l40.8,110.62h-44.64l-23.28-68.91
		l-9.36,20.06v48.84H1358.07z"/>
	<linearGradient id="SVGID_46_" gradientUnits="userSpaceOnUse" x1="1553.1875" y1="385.0982" x2="1595.4287" y2="385.0982">
		<stop  offset="0" style="stop-color:#FCCC00"/>
		<stop  offset="0.527" style="stop-color:#FCEC2C"/>
		<stop  offset="0.9963" style="stop-color:#F9B233"/>
	</linearGradient>
	<path class="st70" d="M1553.19,484.1V286.1h42.24V484.1H1553.19z"/>
	<linearGradient id="SVGID_47_" gradientUnits="userSpaceOnUse" x1="1671.5068" y1="385.0982" x2="1780.71" y2="385.0982">
		<stop  offset="0" style="stop-color:#FCCC00"/>
		<stop  offset="0.527" style="stop-color:#FCEC2C"/>
		<stop  offset="0.9963" style="stop-color:#F9B233"/>
	</linearGradient>
	<path class="st71" d="M1710.63,417.83v13.99c0,11.35,3.36,21.38,16.8,21.38c9.84,0,14.16-9.77,14.16-19.8
		c0-16.63-12.48-22.97-23.52-30.36c-12.96-8.18-24-15.84-31.92-25.87c-7.68-10.03-12.24-22.18-12.24-39.6
		c0-37.22,20.4-56.23,53.04-56.23c36.72,0,55.44,26.93,53.52,64.15h-38.88c-0.48-11.62,0-27.46-13.92-28.51
		c-8.64-0.79-13.68,4.49-14.64,13.2c-1.2,11.88,4.32,17.95,12.72,24.29c15.84,11.09,29.52,17.95,39.36,27.98
		c9.84,10.03,15.6,23.23,15.6,47.26c0,38.02-19.2,59.14-54.24,59.14c-38.64,0-54.96-23.76-54.96-49.9v-21.12H1710.63z"/>
	<linearGradient id="SVGID_48_" gradientUnits="userSpaceOnUse" x1="1852.9473" y1="385.0982" x2="1962.3896" y2="385.0982">
		<stop  offset="0" style="stop-color:#FCCC00"/>
		<stop  offset="0.527" style="stop-color:#FCEC2C"/>
		<stop  offset="0.9963" style="stop-color:#F9B233"/>
	</linearGradient>
	<path class="st72" d="M1852.95,286.1h109.44v39.6h-34.08v158.4h-42.24V325.7h-33.12V286.1z"/>
	<linearGradient id="SVGID_49_" gradientUnits="userSpaceOnUse" x1="2016.6289" y1="385.0982" x2="2145.9922" y2="385.0982">
		<stop  offset="0" style="stop-color:#FCCC00"/>
		<stop  offset="0.527" style="stop-color:#FCEC2C"/>
		<stop  offset="0.9963" style="stop-color:#F9B233"/>
	</linearGradient>
	<path class="st73" d="M2016.63,484.1l39.36-198.01h50.88l39.12,198.01h-42.72l-6-38.54h-33.12l-5.04,38.54H2016.63z M2081.43,322
		h-0.48l-12.24,88.71h24.48L2081.43,322z"/>
	<linearGradient id="SVGID_50_" gradientUnits="userSpaceOnUse" x1="2218.2285" y1="385.0982" x2="2331.0313" y2="385.0982">
		<stop  offset="0" style="stop-color:#FCCC00"/>
		<stop  offset="0.527" style="stop-color:#FCEC2C"/>
		<stop  offset="0.9963" style="stop-color:#F9B233"/>
	</linearGradient>
	<path class="st74" d="M2254.95,373.22l-0.48,0.53l3.84,110.36h-40.08V286.1h43.44l32.64,110.62h0.72l-4.08-110.62h40.08V484.1
		h-43.2L2254.95,373.22z"/>
	<linearGradient id="SVGID_51_" gradientUnits="userSpaceOnUse" x1="979.9229" y1="651.5528" x2="1077.5205" y2="651.5528">
		<stop  offset="0" style="stop-color:#FCCC00"/>
		<stop  offset="0.527" style="stop-color:#FCEC2C"/>
		<stop  offset="0.9963" style="stop-color:#F9B233"/>
	</linearGradient>
	<path class="st75" d="M1044.78,617.17c0.21-15.67-1.06-31.11-17.44-31.11c-9.99,0-16.37,4.44-16.37,16.37
		c0,13.33,7.66,18.48,17.01,25.03c9.78,6.78,27.85,19.88,36.15,28.77c10.21,10.99,13.4,21.52,13.4,36.72
		c0,33.21-19.99,50.52-49.12,50.52c-35.72,0-48.48-21.99-48.48-53.33v-12.86h29.77v10.29c-0.64,17.07,4.04,29.47,18.71,29.47
		c12.55,0,18.5-7.25,18.5-20.58c0-10.29-4.25-17.31-11.91-23.16c-15.52-13.33-34.87-22.92-46.99-40.46
		c-4.89-7.95-7.66-17.54-7.66-26.9c0-29.94,15.31-46.31,46.78-46.31c47.42,0,46.14,40.23,46.35,57.54H1044.78z"/>
	<linearGradient id="SVGID_52_" gradientUnits="userSpaceOnUse" x1="1099.4248" y1="651.5528" x2="1196.5977" y2="651.5528">
		<stop  offset="0" style="stop-color:#FCCC00"/>
		<stop  offset="0.527" style="stop-color:#FCEC2C"/>
		<stop  offset="0.9963" style="stop-color:#F9B233"/>
	</linearGradient>
	<path class="st76" d="M1196.6,676.81c-0.21,3.27-0.42,6.78-0.64,10.06c-1.49,32.04-11.27,56.6-44.44,56.6
		c-48.91,0-52.09-34.15-52.09-80.93v-25.03c1.28-44.67,4.47-77.89,52.09-77.89c26.58,0.47,41.46,15.44,43.59,45.38
		c0.42,4.44,0.85,8.89,0.64,13.33h-29.34c-1.28-11.23-0.21-32.28-14.88-32.28c-23.39,0-21.48,30.64-21.48,44.21v48.65
		c0,14.5,1.06,38.13,21.48,38.13c16.37,0,14.46-29,15.1-40.23H1196.6z"/>
	<linearGradient id="SVGID_53_" gradientUnits="userSpaceOnUse" x1="1220.416" y1="651.5528" x2="1321.6289" y2="651.5528">
		<stop  offset="0" style="stop-color:#FCCC00"/>
		<stop  offset="0.527" style="stop-color:#FCEC2C"/>
		<stop  offset="0.9963" style="stop-color:#F9B233"/>
	</linearGradient>
	<path class="st77" d="M1220.42,739.27V563.84h29.77v69.47h41.68v-69.47h29.77v175.43h-29.77v-80.23h-41.68v80.23H1220.42z"/>
	<linearGradient id="SVGID_54_" gradientUnits="userSpaceOnUse" x1="1348.8477" y1="651.5528" x2="1453.0371" y2="651.5528">
		<stop  offset="0" style="stop-color:#FCCC00"/>
		<stop  offset="0.527" style="stop-color:#FCEC2C"/>
		<stop  offset="0.9963" style="stop-color:#F9B233"/>
	</linearGradient>
	<path class="st78" d="M1348.85,637.52c1.28-44.67,4.46-77.89,52.09-77.89c47.63,0,50.82,33.21,52.09,77.89v25.03
		c0,46.78-3.19,80.93-52.09,80.93s-52.09-34.15-52.09-80.93V637.52z M1379.47,678.92c0,14.5,1.06,38.13,21.48,38.13
		c21.26,0,21.48-24.09,21.48-40.93V631.2c0-14.03,0.64-45.14-21.48-45.14c-23.39,0-21.48,30.64-21.48,44.21V678.92z"/>
	<linearGradient id="SVGID_55_" gradientUnits="userSpaceOnUse" x1="1478.7676" y1="651.5528" x2="1582.957" y2="651.5528">
		<stop  offset="0" style="stop-color:#FCCC00"/>
		<stop  offset="0.527" style="stop-color:#FCEC2C"/>
		<stop  offset="0.9963" style="stop-color:#F9B233"/>
	</linearGradient>
	<path class="st79" d="M1478.77,637.52c1.28-44.67,4.46-77.89,52.09-77.89c47.63,0,50.82,33.21,52.09,77.89v25.03
		c0,46.78-3.19,80.93-52.09,80.93s-52.09-34.15-52.09-80.93V637.52z M1509.39,678.92c0,14.5,1.06,38.13,21.48,38.13
		c21.26,0,21.48-24.09,21.48-40.93V631.2c0-14.03,0.64-45.14-21.48-45.14c-23.39,0-21.48,30.64-21.48,44.21V678.92z"/>
	<linearGradient id="SVGID_56_" gradientUnits="userSpaceOnUse" x1="1610.1768" y1="651.5528" x2="1695.2295" y2="651.5528">
		<stop  offset="0" style="stop-color:#FCCC00"/>
		<stop  offset="0.527" style="stop-color:#FCEC2C"/>
		<stop  offset="0.9963" style="stop-color:#F9B233"/>
	</linearGradient>
	<path class="st80" d="M1610.18,739.27V563.84h29.77v149.7h55.28v25.73H1610.18z"/>
	<linearGradient id="SVGID_57_" gradientUnits="userSpaceOnUse" x1="1765.6143" y1="651.5528" x2="1863.2119" y2="651.5528">
		<stop  offset="0" style="stop-color:#FCCC00"/>
		<stop  offset="0.527" style="stop-color:#FCEC2C"/>
		<stop  offset="0.9963" style="stop-color:#F9B233"/>
	</linearGradient>
	<path class="st81" d="M1830.47,617.17c0.21-15.67-1.06-31.11-17.44-31.11c-9.99,0-16.37,4.44-16.37,16.37
		c0,13.33,7.66,18.48,17.01,25.03c9.78,6.78,27.85,19.88,36.15,28.77c10.21,10.99,13.4,21.52,13.4,36.72
		c0,33.21-19.99,50.52-49.12,50.52c-35.72,0-48.48-21.99-48.48-53.33v-12.86h29.77v10.29c-0.64,17.07,4.04,29.47,18.71,29.47
		c12.55,0,18.5-7.25,18.5-20.58c0-10.29-4.25-17.31-11.91-23.16c-15.52-13.33-34.87-22.92-46.99-40.46
		c-4.89-7.95-7.66-17.54-7.66-26.9c0-29.94,15.31-46.31,46.78-46.31c47.42,0,46.14,40.23,46.35,57.54H1830.47z"/>
	<linearGradient id="SVGID_58_" gradientUnits="userSpaceOnUse" x1="1887.8809" y1="651.5528" x2="1985.9033" y2="651.5528">
		<stop  offset="0" style="stop-color:#FCCC00"/>
		<stop  offset="0.527" style="stop-color:#FCEC2C"/>
		<stop  offset="0.9963" style="stop-color:#F9B233"/>
	</linearGradient>
	<path class="st82" d="M1887.88,739.27V563.84h60.81c28.49,0,37.21,25.26,37.21,49.82c0,14.97-3.61,31.81-14.88,41.63
		c-9.36,8.19-21.9,10.76-33.38,10.53h-19.99v73.45H1887.88z M1917.65,640.09h15.95c12.97,0,21.69-6.08,21.69-27.37
		c0-20.12-7.23-23.16-24.03-23.16h-13.61V640.09z"/>
	<linearGradient id="SVGID_59_" gradientUnits="userSpaceOnUse" x1="2004.6191" y1="651.5528" x2="2108.8086" y2="651.5528">
		<stop  offset="0" style="stop-color:#FCCC00"/>
		<stop  offset="0.527" style="stop-color:#FCEC2C"/>
		<stop  offset="0.9963" style="stop-color:#F9B233"/>
	</linearGradient>
	<path class="st83" d="M2004.62,637.52c1.28-44.67,4.46-77.89,52.09-77.89c47.63,0,50.82,33.21,52.09,77.89v25.03
		c0,46.78-3.19,80.93-52.09,80.93s-52.09-34.15-52.09-80.93V637.52z M2035.24,678.92c0,14.5,1.06,38.13,21.48,38.13
		c21.26,0,21.48-24.09,21.48-40.93V631.2c0-14.03,0.64-45.14-21.48-45.14c-23.39,0-21.48,30.64-21.48,44.21V678.92z"/>
	<linearGradient id="SVGID_60_" gradientUnits="userSpaceOnUse" x1="2135.6016" y1="651.5528" x2="2242.1299" y2="651.5528">
		<stop  offset="0" style="stop-color:#FCCC00"/>
		<stop  offset="0.527" style="stop-color:#FCEC2C"/>
		<stop  offset="0.9963" style="stop-color:#F9B233"/>
	</linearGradient>
	<path class="st84" d="M2165.37,663.72v75.55h-29.77V563.84h56.35c25.73,0,45.29,9.82,45.29,42.1c0,19.18-4.47,39.29-24.45,42.34
		v0.47c17.65,2.57,22.96,14.97,22.96,31.81c0,7.25-0.85,50.29,6.38,55.44v3.27h-32.75c-3.61-11.23-2.98-32.75-3.19-44.44
		c-0.21-10.76,0-25.5-10.21-28.77c-8.08-2.57-16.8-2.34-25.3-2.34H2165.37z M2165.37,637.99h23.39c9.78-0.7,17.44-7.72,17.44-25.26
		c0-19.65-7.44-22.92-18.71-23.16h-22.11V637.99z"/>
	<linearGradient id="SVGID_61_" gradientUnits="userSpaceOnUse" x1="2251.2783" y1="651.5528" x2="2350.5771" y2="651.5528">
		<stop  offset="0" style="stop-color:#FCCC00"/>
		<stop  offset="0.527" style="stop-color:#FCEC2C"/>
		<stop  offset="0.9963" style="stop-color:#F9B233"/>
	</linearGradient>
	<path class="st85" d="M2251.28,563.84h99.3v25.73h-34.66v149.7h-29.77v-149.7h-34.87V563.84z"/>
	<linearGradient id="SVGID_62_" gradientUnits="userSpaceOnUse" x1="985.0264" y1="906.7188" x2="1069.4404" y2="906.7188">
		<stop  offset="0" style="stop-color:#FCCC00"/>
		<stop  offset="0.527" style="stop-color:#FCEC2C"/>
		<stop  offset="0.9963" style="stop-color:#F9B233"/>
	</linearGradient>
	<path class="st86" d="M985.03,994.43V819.01h84.41v25.73h-54.65v44.44h51.24v25.73h-51.24v79.53H985.03z"/>
	<linearGradient id="SVGID_63_" gradientUnits="userSpaceOnUse" x1="1089.4316" y1="906.7188" x2="1173.208" y2="906.7188">
		<stop  offset="0" style="stop-color:#FCCC00"/>
		<stop  offset="0.527" style="stop-color:#FCEC2C"/>
		<stop  offset="0.9963" style="stop-color:#F9B233"/>
	</linearGradient>
	<path class="st87" d="M1089.43,994.43V819.01h83.78v25.73h-54.01v44.21h49.76v25.73h-49.76v54.03h54.01v25.73H1089.43z"/>
	<linearGradient id="SVGID_64_" gradientUnits="userSpaceOnUse" x1="1197.4512" y1="906.7188" x2="1299.0889" y2="906.7188">
		<stop  offset="0" style="stop-color:#FCCC00"/>
		<stop  offset="0.527" style="stop-color:#FCEC2C"/>
		<stop  offset="0.9963" style="stop-color:#F9B233"/>
	</linearGradient>
	<path class="st88" d="M1197.45,994.43V819.01h62.09c7.23,0,21.69,3.51,30.83,19.88c6.8,12.16,8.72,31.58,8.72,60.58
		c0,34.62,0,74.61-24.45,90.29c-6.59,4.21-14.67,4.68-22.11,4.68H1197.45z M1240.19,968.7c26.58,0,28.28-15.44,28.28-66.19
		c0-41.4-3.83-57.77-21.69-57.77h-19.56V968.7H1240.19z"/>
	<linearGradient id="SVGID_65_" gradientUnits="userSpaceOnUse" x1="1325.6699" y1="906.7188" x2="1409.4463" y2="906.7188">
		<stop  offset="0" style="stop-color:#FCCC00"/>
		<stop  offset="0.527" style="stop-color:#FCEC2C"/>
		<stop  offset="0.9963" style="stop-color:#F9B233"/>
	</linearGradient>
	<path class="st89" d="M1325.67,994.43V819.01h83.78v25.73h-54.01v44.21h49.76v25.73h-49.76v54.03h54.01v25.73H1325.67z"/>
	<linearGradient id="SVGID_66_" gradientUnits="userSpaceOnUse" x1="1432.4141" y1="906.7188" x2="1538.9424" y2="906.7188">
		<stop  offset="0" style="stop-color:#FCCC00"/>
		<stop  offset="0.527" style="stop-color:#FCEC2C"/>
		<stop  offset="0.9963" style="stop-color:#F9B233"/>
	</linearGradient>
	<path class="st90" d="M1462.18,918.88v75.55h-29.77V819.01h56.35c25.73,0,45.29,9.82,45.29,42.1c0,19.18-4.47,39.3-24.45,42.34
		v0.47c17.65,2.57,22.96,14.97,22.96,31.81c0,7.25-0.85,50.29,6.38,55.43v3.27h-32.75c-3.61-11.23-2.98-32.75-3.19-44.44
		c-0.21-10.76,0-25.5-10.21-28.77c-8.08-2.57-16.8-2.34-25.3-2.34H1462.18z M1462.18,893.15h23.39c9.78-0.7,17.44-7.72,17.44-25.26
		c0-19.65-7.44-22.92-18.71-23.16h-22.11V893.15z"/>
	<linearGradient id="SVGID_67_" gradientUnits="userSpaceOnUse" x1="1550.2148" y1="906.7188" x2="1664.6104" y2="906.7188">
		<stop  offset="0" style="stop-color:#FCCC00"/>
		<stop  offset="0.527" style="stop-color:#FCEC2C"/>
		<stop  offset="0.9963" style="stop-color:#F9B233"/>
	</linearGradient>
	<path class="st91" d="M1550.21,994.43l38.06-175.43h40.19l36.15,175.43h-31.89l-7.87-44.44h-34.87l-7.87,44.44H1550.21z
		 M1594.65,924.26h25.52l-8.08-49.82c-1.49-8.19-2.13-16.14-2.98-24.33c-0.21-3.98-0.64-7.95-1.06-11.7h-0.42
		c-0.43,3.74-0.85,7.72-1.06,11.7c-0.85,8.19-1.49,16.14-2.98,24.33L1594.65,924.26z"/>
	<linearGradient id="SVGID_68_" gradientUnits="userSpaceOnUse" x1="1658.4482" y1="906.7188" x2="1757.7471" y2="906.7188">
		<stop  offset="0" style="stop-color:#FCCC00"/>
		<stop  offset="0.527" style="stop-color:#FCEC2C"/>
		<stop  offset="0.9963" style="stop-color:#F9B233"/>
	</linearGradient>
	<path class="st92" d="M1658.45,819.01h99.3v25.73h-34.66v149.7h-29.77v-149.7h-34.87V819.01z"/>
	<linearGradient id="SVGID_69_" gradientUnits="userSpaceOnUse" x1="1775.8242" y1="906.7188" x2="1805.5918" y2="906.7188">
		<stop  offset="0" style="stop-color:#FCCC00"/>
		<stop  offset="0.527" style="stop-color:#FCEC2C"/>
		<stop  offset="0.9963" style="stop-color:#F9B233"/>
	</linearGradient>
	<path class="st93" d="M1775.82,994.43V819.01h29.77v175.43H1775.82z"/>
	<linearGradient id="SVGID_70_" gradientUnits="userSpaceOnUse" x1="1833.2363" y1="906.7188" x2="1937.4258" y2="906.7188">
		<stop  offset="0" style="stop-color:#FCCC00"/>
		<stop  offset="0.527" style="stop-color:#FCEC2C"/>
		<stop  offset="0.9963" style="stop-color:#F9B233"/>
	</linearGradient>
	<path class="st94" d="M1833.24,892.69c1.28-44.68,4.46-77.89,52.09-77.89c47.63,0,50.82,33.21,52.09,77.89v25.03
		c0,46.78-3.19,80.93-52.09,80.93s-52.09-34.15-52.09-80.93V892.69z M1863.86,934.09c0,14.5,1.06,38.13,21.48,38.13
		c21.26,0,21.48-24.09,21.48-40.93v-44.91c0-14.03,0.64-45.14-21.48-45.14c-23.39,0-21.48,30.64-21.48,44.21V934.09z"/>
	<linearGradient id="SVGID_71_" gradientUnits="userSpaceOnUse" x1="1964.6455" y1="906.7188" x2="2065.6455" y2="906.7188">
		<stop  offset="0" style="stop-color:#FCCC00"/>
		<stop  offset="0.527" style="stop-color:#FCEC2C"/>
		<stop  offset="0.9963" style="stop-color:#F9B233"/>
	</linearGradient>
	<path class="st95" d="M2035.88,819.01h29.77v175.43h-31.04l-23.18-62.45c-7.87-20.82-14.25-42.1-21.26-69.7h-0.42
		c1.06,14.5,2.34,32.28,3.19,50.05c0.85,17.54,1.49,35.08,1.49,49.12v32.98h-29.77V819.01h30.83l23.18,63.86
		c7.66,20.35,14.03,41.17,21.26,69.7h0.42c-1.06-15.91-2.13-32.98-2.98-49.82s-1.49-33.68-1.49-49.35V819.01z"/>
</g>
</svg>
